<svg width="25" height="24" viewBox="0 0 25 24" fill="none" xmlns="http://www.w3.org/2000/svg">
<g id="device-message">
<g id="vuesax/outline/device-message">
<g id="device-message_2">
<path id="Vector" d="M15.75 19.15H6.75C3.41 19.15 1.5 17.24 1.5 13.9V8.5C1.5 5.16 3.41 3.25 6.75 3.25H9.45C9.69 3.25 9.92 3.37006 10.06 3.56006C10.2 3.75006 10.24 4.00999 10.16 4.23999C10.05 4.54999 10 4.89 10 5.25V9.15002C10 9.91002 10.23 10.54 10.67 10.98C11.11 11.42 11.74 11.65 12.5 11.65C12.91 11.65 13.25 11.99 13.25 12.4V13.6L15.98 11.77C16.1 11.69 16.25 11.64 16.4 11.64H19C19.36 11.64 19.7 11.59 20.01 11.48C20.24 11.4 20.49 11.44 20.69 11.58C20.89 11.72 21 11.9499 21 12.1899V13.89C21 17.24 19.09 19.15 15.75 19.15ZM6.75 4.75C4.23 4.75 3 5.98 3 8.5V13.9C3 16.42 4.23 17.65 6.75 17.65H15.75C18.27 17.65 19.5 16.42 19.5 13.9V13.12C19.34 13.14 19.17 13.15 19 13.15H16.63L13.93 14.95C13.49 15.23 12.94 15.26 12.49 15.01C12.04 14.77 11.76 14.3 11.76 13.79V13.09C10.92 12.96 10.18 12.59 9.62 12.04C8.91 11.33 8.51 10.3 8.51 9.15002V5.25C8.51 5.08 8.52 4.91 8.53 4.75H6.75Z" fill="black"/>
<path id="Vector_2" d="M13.15 15.1801C12.92 15.1801 12.69 15.12 12.48 15.01C12.03 14.77 11.75 14.3 11.75 13.79V13.09C10.91 12.96 10.17 12.59 9.61 12.04C8.9 11.33 8.5 10.3 8.5 9.15002V5.25C8.5 4.72 8.58 4.22001 8.74 3.76001C9.3 2.19001 10.7 1.25 12.5 1.25H19C21.35 1.25 23 2.89 23 5.25V9.15002C23 10.95 22.07 12.35 20.5 12.91C20.02 13.07 19.52 13.15 19 13.15H16.63L13.93 14.95C13.69 15.11 13.42 15.1801 13.15 15.1801ZM12.5 2.75C11.35 2.75 10.5 3.3 10.16 4.25C10.06 4.55 10 4.89 10 5.25V9.15002C10 9.91002 10.23 10.54 10.67 10.98C11.11 11.42 11.74 11.65 12.5 11.65C12.91 11.65 13.25 11.99 13.25 12.4V13.6L15.98 11.77C16.1 11.69 16.25 11.64 16.4 11.64H19C19.36 11.64 19.7 11.59 20.01 11.48C20.96 11.14 21.5 10.29 21.5 9.14001V5.23999C21.5 3.69999 20.54 2.73999 19 2.73999H12.5V2.75Z" fill="black"/>
<path id="Vector_3" d="M14.8499 22.75H7.6499C7.2399 22.75 6.8999 22.41 6.8999 22C6.8999 21.59 7.2399 21.25 7.6499 21.25H14.8499C15.2599 21.25 15.5999 21.59 15.5999 22C15.5999 22.41 15.2599 22.75 14.8499 22.75Z" fill="black"/>
<path id="Vector_4" d="M11.25 22.75C10.84 22.75 10.5 22.41 10.5 22V18.4C10.5 17.99 10.84 17.65 11.25 17.65C11.66 17.65 12 17.99 12 18.4V22C12 22.41 11.66 22.75 11.25 22.75Z" fill="black"/>
<path id="Vector_5" d="M15.6899 8C15.2699 8 14.9399 7.66 14.9399 7.25C14.9399 6.84 15.2799 6.5 15.6899 6.5C16.0999 6.5 16.4399 6.84 16.4399 7.25C16.4399 7.66 16.0999 8 15.6899 8Z" fill="black"/>
<path id="Vector_6" d="M18.5 8C18.08 8 17.75 7.66 17.75 7.25C17.75 6.84 18.09 6.5 18.5 6.5C18.91 6.5 19.25 6.84 19.25 7.25C19.25 7.66 18.91 8 18.5 8Z" fill="black"/>
<path id="Vector_7" d="M12.8701 8C12.4501 8 12.1201 7.66 12.1201 7.25C12.1201 6.84 12.4601 6.5 12.8701 6.5C13.2801 6.5 13.6201 6.84 13.6201 7.25C13.6201 7.66 13.2901 8 12.8701 8Z" fill="black"/>
</g>
</g>
</g>
</svg>
