<svg width="24" height="24" viewBox="-0.5 -1 24 24" fill="none" xmlns="http://www.w3.org/2000/svg">
<g id="ic-emoji-pretty-good" clip-path="url(#clip0_11_2905)">
<g id="Layer">
<path id="Vector" d="M11.5599 21.2667C17.23 21.2667 21.8265 16.6701 21.8265 11C21.8265 5.32988 17.23 0.733337 11.5599 0.733337C5.88976 0.733337 1.29321 5.32988 1.29321 11C1.29321 16.6701 5.88976 21.2667 11.5599 21.2667Z" stroke="#DBB468" stroke-width="1.5" stroke-linecap="round" stroke-linejoin="round"/>
<path id="Vector_2" d="M7.96676 9.97334C8.81728 9.97334 9.50676 9.28386 9.50676 8.43334C9.50676 7.58282 8.81728 6.89334 7.96676 6.89334C7.11624 6.89334 6.42676 7.58282 6.42676 8.43334C6.42676 9.28386 7.11624 9.97334 7.96676 9.97334Z" stroke="#DBB468" stroke-width="1.5" stroke-linecap="round" stroke-linejoin="round"/>
<path id="Vector_3" d="M15.1533 9.97334C16.0038 9.97334 16.6933 9.28386 16.6933 8.43334C16.6933 7.58282 16.0038 6.89334 15.1533 6.89334C14.3028 6.89334 13.6133 7.58282 13.6133 8.43334C13.6133 9.28386 14.3028 9.97334 15.1533 9.97334Z" stroke="#DBB468" stroke-width="1.5" stroke-linecap="round" stroke-linejoin="round"/>
<path id="Vector_4" d="M8.47974 14.0081C8.51961 14.7862 8.86605 15.5169 9.44325 16.0402C10.0205 16.5635 10.7814 16.837 11.5597 16.8006V16.8006C12.338 16.837 13.099 16.5635 13.6762 16.0402C14.2534 15.5169 14.5999 14.7862 14.6397 14.0081" stroke="#DBB468" stroke-width="1.5" stroke-linecap="round" stroke-linejoin="round"/>
</g>
</g>
<defs>
<clipPath id="clip0_11_2905">
<rect width="22.88" height="22" fill="white" transform="translate(0.120117)"/>
</clipPath>
</defs>
</svg>
