<svg width="24" height="24" viewBox="-5 -5 24 24" fill="none" xmlns="http://www.w3.org/2000/svg">
<g id="ic-actions-thumbs-up">
<g id="Layer">
<g id="Vrstva 97">
<path id="Vector" fill-rule="evenodd" clip-rule="evenodd" d="M10.6108 5.36083H7.69414L6.99997 3.19666C6.89091 2.87004 6.68175 2.58606 6.40218 2.38502C6.1226 2.18398 5.78682 2.07609 5.44247 2.07666H5.13914C4.7044 2.07666 4.28747 2.24936 3.98007 2.55676C3.67267 2.86417 3.49997 3.2811 3.49997 3.71583V10.2842C3.49997 10.4999 3.54256 10.7135 3.6253 10.9128C3.70804 11.112 3.8293 11.293 3.98213 11.4453C4.13496 11.5976 4.31635 11.7182 4.5159 11.8002C4.71544 11.8823 4.92922 11.9241 5.14497 11.9233H9.1583C9.51377 11.925 9.86002 11.8103 10.1441 11.5967L11.5966 10.5C11.8003 10.3473 11.9654 10.1491 12.0788 9.92117C12.1923 9.69329 12.2509 9.44205 12.25 9.1875V7C12.25 6.56526 12.0773 6.14833 11.7699 5.84093C11.4625 5.53353 11.0455 5.36083 10.6108 5.36083V5.36083Z" stroke="#DBB468" stroke-width="0.875" stroke-linecap="round" stroke-linejoin="round"/>
<path id="Vector_2" d="M2.24579 5.58838V11.095" stroke="#DBB468" stroke-width="0.875" stroke-linecap="round" stroke-linejoin="bevel"/>
</g>
</g>
</g>
</svg>
