<svg width="36" height="36" viewBox="0 0 36 36" fill="none" xmlns="http://www.w3.org/2000/svg">
<g id="24x24/unordered-lists">
<g id="unordered-lists">
<path id="unordered-lists_2" fill-rule="evenodd" clip-rule="evenodd" d="M4.9 7.5C4.67909 7.5 4.5 7.67909 4.5 7.9V10.1C4.5 10.3209 4.67909 10.5 4.9 10.5H7.1C7.32091 10.5 7.5 10.3209 7.5 10.1V7.9C7.5 7.67909 7.32091 7.5 7.1 7.5H4.9ZM10.9 7.5C10.6791 7.5 10.5 7.67909 10.5 7.9V10.1C10.5 10.3209 10.6791 10.5 10.9 10.5H31.1C31.3209 10.5 31.5 10.3209 31.5 10.1V7.9C31.5 7.67909 31.3209 7.5 31.1 7.5H10.9ZM10.9 16.5C10.6791 16.5 10.5 16.6791 10.5 16.9V19.1C10.5 19.3209 10.6791 19.5 10.9 19.5H31.1C31.3209 19.5 31.5 19.3209 31.5 19.1V16.9C31.5 16.6791 31.3209 16.5 31.1 16.5H10.9ZM10.5 25.9C10.5 25.6791 10.6791 25.5 10.9 25.5H31.1C31.3209 25.5 31.5 25.6791 31.5 25.9V28.1C31.5 28.3209 31.3209 28.5 31.1 28.5H10.9C10.6791 28.5 10.5 28.3209 10.5 28.1V25.9ZM4.5 16.9C4.5 16.6791 4.67909 16.5 4.9 16.5H7.1C7.32091 16.5 7.5 16.6791 7.5 16.9V19.1C7.5 19.3209 7.32091 19.5 7.1 19.5H4.9C4.67909 19.5 4.5 19.3209 4.5 19.1V16.9ZM4.9 25.5C4.67909 25.5 4.5 25.6791 4.5 25.9V28.1C4.5 28.3209 4.67909 28.5 4.9 28.5H7.1C7.32091 28.5 7.5 28.3209 7.5 28.1V25.9C7.5 25.6791 7.32091 25.5 7.1 25.5H4.9Z" fill="black"/>
</g>
</g>
</svg>
