<svg width="24" height="24" viewBox="-4.5 -5 24 24" fill="none" xmlns="http://www.w3.org/2000/svg">
<g id="device-message">
<g id="vuesax/outline/device-message">
<g id="device-message_2">
<path id="Vector" d="M9.87502 11.1708H4.62502C2.67668 11.1708 1.56252 10.0566 1.56252 8.10827V4.95825C1.56252 3.00992 2.67668 1.89575 4.62502 1.89575H6.20002C6.34002 1.89575 6.47418 1.96579 6.55585 2.07662C6.63752 2.18745 6.66085 2.33908 6.61418 2.47325C6.55002 2.65408 6.52085 2.85242 6.52085 3.06242V5.33743C6.52085 5.78077 6.65502 6.14824 6.91168 6.40491C7.16835 6.66157 7.53585 6.79577 7.97918 6.79577C8.21835 6.79577 8.41668 6.9941 8.41668 7.23327V7.93324L10.0092 6.86576C10.0792 6.8191 10.1667 6.78993 10.2542 6.78993H11.7708C11.9808 6.78993 12.1792 6.76074 12.36 6.69657C12.4942 6.64991 12.64 6.67323 12.7567 6.75489C12.8734 6.83656 12.9375 6.97072 12.9375 7.11072V8.10243C12.9375 10.0566 11.8233 11.1708 9.87502 11.1708ZM4.62502 2.77075C3.15502 2.77075 2.43752 3.48825 2.43752 4.95825V8.10827C2.43752 9.57827 3.15502 10.2958 4.62502 10.2958H9.87502C11.345 10.2958 12.0625 9.57827 12.0625 8.10827V7.65325C11.9692 7.66492 11.87 7.67077 11.7708 7.67077H10.3883L8.81335 8.72072C8.55668 8.88406 8.23585 8.90159 7.97335 8.75576C7.71085 8.61576 7.54752 8.34161 7.54752 8.04411V7.63573C7.05752 7.5599 6.62585 7.34411 6.29918 7.02327C5.88502 6.60911 5.65168 6.00827 5.65168 5.33743V3.06242C5.65168 2.96325 5.65752 2.86409 5.66335 2.77075H4.62502Z" fill="#DBB468"/>
<path id="Vector_2" d="M8.35834 8.85511C8.22418 8.85511 8.09001 8.82009 7.96751 8.75592C7.70501 8.61592 7.54168 8.34177 7.54168 8.04427V7.6359C7.05168 7.56006 6.62001 7.34427 6.29334 7.02344C5.87918 6.60927 5.64584 6.00843 5.64584 5.3376V3.06258C5.64584 2.75341 5.69251 2.46175 5.78584 2.19342C6.11251 1.27759 6.92918 0.729248 7.97918 0.729248H11.7708C13.1417 0.729248 14.1042 1.68591 14.1042 3.06258V5.3376C14.1042 6.3876 13.5617 7.20427 12.6458 7.53094C12.3658 7.62427 12.0742 7.67093 11.7708 7.67093H10.3883L8.81334 8.72089C8.67334 8.81422 8.51584 8.85511 8.35834 8.85511ZM7.97918 1.60425C7.30834 1.60425 6.81251 1.92508 6.61418 2.47925C6.55584 2.65425 6.52084 2.85258 6.52084 3.06258V5.3376C6.52084 5.78093 6.65501 6.1484 6.91168 6.40507C7.16834 6.66174 7.53584 6.79593 7.97918 6.79593C8.21834 6.79593 8.41668 6.99426 8.41668 7.23343V7.9334L10.0092 6.86593C10.0792 6.81926 10.1667 6.79009 10.2542 6.79009H11.7708C11.9808 6.79009 12.1792 6.7609 12.36 6.69674C12.9142 6.4984 13.2292 6.00259 13.2292 5.33176V3.05674C13.2292 2.15841 12.6692 1.59841 11.7708 1.59841H7.97918V1.60425Z" fill="#DBB468"/>
<path id="Vector_3" d="M9.34995 13.2708H5.14995C4.91078 13.2708 4.71245 13.0724 4.71245 12.8333C4.71245 12.5941 4.91078 12.3958 5.14995 12.3958H9.34995C9.58912 12.3958 9.78745 12.5941 9.78745 12.8333C9.78745 13.0724 9.58912 13.2708 9.34995 13.2708Z" fill="#DBB468"/>
<path id="Vector_4" d="M7.25002 13.2709C7.01085 13.2709 6.81252 13.0726 6.81252 12.8334V10.7334C6.81252 10.4942 7.01085 10.2959 7.25002 10.2959C7.48918 10.2959 7.68752 10.4942 7.68752 10.7334V12.8334C7.68752 13.0726 7.48918 13.2709 7.25002 13.2709Z" fill="#DBB468"/>
<path id="Vector_5" d="M9.83998 4.66675C9.59498 4.66675 9.40248 4.46841 9.40248 4.22925C9.40248 3.99008 9.60081 3.79175 9.83998 3.79175C10.0791 3.79175 10.2775 3.99008 10.2775 4.22925C10.2775 4.46841 10.0791 4.66675 9.83998 4.66675Z" fill="#DBB468"/>
<path id="Vector_6" d="M11.4792 4.66675C11.2342 4.66675 11.0417 4.46841 11.0417 4.22925C11.0417 3.99008 11.24 3.79175 11.4792 3.79175C11.7183 3.79175 11.9167 3.99008 11.9167 4.22925C11.9167 4.46841 11.7183 4.66675 11.4792 4.66675Z" fill="#DBB468"/>
<path id="Vector_7" d="M8.19508 4.66675C7.95008 4.66675 7.75758 4.46841 7.75758 4.22925C7.75758 3.99008 7.95592 3.79175 8.19508 3.79175C8.43425 3.79175 8.63258 3.99008 8.63258 4.22925C8.63258 4.46841 8.44008 4.66675 8.19508 4.66675Z" fill="#DBB468"/>
</g>
</g>
</g>
</svg>
