<svg width="56" height="54" viewBox="0 0 56 54" fill="none" xmlns="http://www.w3.org/2000/svg">
<g id="icn play .icn-sm" clip-path="url(#clip0_1_337)">
<g id="YouTube">
<path id="Exclude" fill-rule="evenodd" clip-rule="evenodd" d="M49.5196 7.67081C51.8754 8.30308 53.7329 10.1547 54.3672 12.5032C55.5451 16.7936 55.4998 25.7358 55.4998 25.7358C55.4998 25.7358 55.4998 34.6329 54.3672 38.9233C53.7329 41.2718 51.8754 43.1234 49.5196 43.7557C45.2156 44.8848 27.9999 44.8848 27.9999 44.8848C27.9999 44.8848 10.8294 44.8848 6.48021 43.7105C4.12437 43.0783 2.26688 41.2266 1.63261 38.8781C0.5 34.6329 0.5 25.6907 0.5 25.6907C0.5 25.6907 0.5 16.7936 1.63261 12.5032C2.26688 10.1547 4.16967 8.25792 6.48021 7.62565C10.7841 6.49658 27.9999 6.49658 27.9999 6.49658C27.9999 6.49658 45.2156 6.49658 49.5196 7.67081ZM36.8343 25.6906L22.518 33.9102V17.4711L36.8343 25.6906Z" fill="#f00"/>
</g>
</g>
<defs>

</defs>
</svg>
