<svg width="14" height="14" viewBox="0 0 14 14" fill="none" xmlns="http://www.w3.org/2000/svg">
<path d="M12.802 5.35442C12.7654 5.24643 12.6979 5.15154 12.6079 5.08146C12.5179 5.01138 12.4094 4.96919 12.2957 4.96009L8.97011 4.69584L7.53103 1.51026C7.48519 1.40766 7.41065 1.32051 7.31639 1.25934C7.22212 1.19817 7.11217 1.16559 6.9998 1.16553C6.88743 1.16547 6.77744 1.19793 6.68311 1.25899C6.58878 1.32006 6.51413 1.40712 6.46819 1.50968L5.02911 4.69584L1.70353 4.96009C1.59179 4.96894 1.48497 5.0098 1.39585 5.07777C1.30673 5.14574 1.23907 5.23795 1.20098 5.34336C1.16289 5.44877 1.15597 5.56293 1.18106 5.67217C1.20615 5.78141 1.26218 5.88111 1.34244 5.95934L3.80002 8.35509L2.93086 12.1188C2.90447 12.2327 2.91293 12.3519 2.95514 12.461C2.99735 12.57 3.07136 12.6639 3.16758 12.7303C3.26379 12.7968 3.37776 12.8328 3.4947 12.8337C3.61164 12.8346 3.72614 12.8003 3.82336 12.7353L6.99961 10.6178L10.1759 12.7353C10.2752 12.8013 10.3924 12.8353 10.5116 12.8327C10.6309 12.83 10.7465 12.791 10.8428 12.7207C10.9392 12.6505 11.0118 12.5524 11.0507 12.4396C11.0897 12.3269 11.0932 12.205 11.0608 12.0902L9.99386 8.35684L12.6399 5.97568C12.8131 5.81934 12.8767 5.57551 12.802 5.35442Z" fill="#FDB602"/>
</svg>
