<svg width="25" height="24" viewBox="0 0 25 24" fill="none" xmlns="http://www.w3.org/2000/svg">
<g id="ic-actions-thumbs-up">
<g id="Layer">
<g id="Vrstva 97">
<path id="Vector" fill-rule="evenodd" clip-rule="evenodd" d="M18.6065 9.19006H13.6065L12.4165 5.48006C12.2295 4.92014 11.871 4.43332 11.3917 4.08868C10.9125 3.74403 10.3368 3.55908 9.7465 3.56006H9.2265C8.48125 3.56006 7.76651 3.85612 7.23953 4.38309C6.71256 4.91007 6.4165 5.6248 6.4165 6.37006V17.6301C6.4165 17.9999 6.48951 18.3661 6.63135 18.7077C6.7732 19.0493 6.98107 19.3595 7.24307 19.6206C7.50506 19.8816 7.81601 20.0884 8.15809 20.229C8.50017 20.3697 8.86665 20.4414 9.2365 20.4401H16.1165C16.7259 20.443 17.3194 20.2463 17.8065 19.8801L20.2965 18.0001C20.6456 17.7382 20.9287 17.3984 21.1231 17.0078C21.3176 16.6171 21.4181 16.1864 21.4165 15.7501V12.0001C21.4165 11.2548 21.1205 10.5401 20.5935 10.0131C20.0665 9.48612 19.3518 9.19006 18.6065 9.19006V9.19006Z" stroke="black" stroke-width="1.5" stroke-linecap="round" stroke-linejoin="round"/>
<path id="Vector_2" d="M4.2666 9.58008V19.0201" stroke="black" stroke-width="1.5" stroke-linecap="round" stroke-linejoin="bevel"/>
</g>
</g>
</g>
</svg>
