<svg width="15" height="14" viewBox="0 0 15 14" fill="none" xmlns="http://www.w3.org/2000/svg">
<g id="icn bx-star">
<path id="Vector" d="M4.073 8.35517L3.14175 12.1188C3.11292 12.2328 3.12157 12.3522 3.16659 12.4615C3.21161 12.5708 3.29091 12.6649 3.39411 12.7315C3.49732 12.7981 3.61964 12.8341 3.7451 12.8348C3.87056 12.8355 3.99333 12.8009 4.09738 12.7354L7.5005 10.6179L10.9036 12.7354C11.0101 12.8014 11.1356 12.8353 11.2634 12.8327C11.3912 12.8301 11.515 12.7911 11.6182 12.7208C11.7215 12.6505 11.7992 12.5524 11.841 12.4397C11.8827 12.327 11.8865 12.205 11.8518 12.0902L10.7086 8.35691L13.5436 5.97575C13.6344 5.89944 13.6993 5.79997 13.7301 5.68963C13.761 5.57929 13.7566 5.46293 13.7173 5.35493C13.6781 5.24693 13.6058 5.15204 13.5094 5.08198C13.413 5.01192 13.2967 4.96977 13.1749 4.96075L9.61175 4.69592L8.06988 1.51033C8.02071 1.40776 7.94079 1.32065 7.83976 1.25953C7.73873 1.19842 7.6209 1.16589 7.5005 1.16589C7.38011 1.16589 7.26228 1.19842 7.16125 1.25953C7.06022 1.32065 6.98029 1.40776 6.93113 1.51033L5.38925 4.69592L1.82613 4.96017C1.70641 4.96902 1.59197 5.00987 1.49648 5.07784C1.40099 5.14581 1.3285 5.23802 1.28769 5.34343C1.24688 5.44885 1.23947 5.563 1.26635 5.67224C1.29322 5.78148 1.35326 5.88118 1.43925 5.95941L4.073 8.35517ZM5.85613 5.83167C5.96769 5.82346 6.07483 5.7874 6.16632 5.72726C6.25781 5.66711 6.33028 5.58511 6.37613 5.48983L7.5005 3.16758L8.62488 5.48983C8.67073 5.58511 8.7432 5.66711 8.83469 5.72726C8.92618 5.7874 9.03332 5.82346 9.14488 5.83167L11.6274 6.01542L9.583 7.73275C9.4055 7.88208 9.33488 8.11192 9.39988 8.32658L10.183 10.8845L7.848 9.43141C7.74552 9.36721 7.62487 9.33293 7.50144 9.33293C7.37801 9.33293 7.25737 9.36721 7.15488 9.43141L4.71488 10.9498L5.37113 8.298C5.39519 8.20047 5.39196 8.0988 5.36175 8.00277C5.33154 7.90674 5.27537 7.81957 5.19863 7.74966L3.29988 6.02183L5.85613 5.83167Z" fill="#FDB602"/>
</g>
</svg>
