<svg width="25" height="24" viewBox="0 0 25 24" fill="none" xmlns="http://www.w3.org/2000/svg">
<g id="Group 18">
<path id="Vector" d="M24.0833 0H0.083252V24H24.0833V0Z" fill="white"/>
<path id="Vector_2" fill-rule="evenodd" clip-rule="evenodd" d="M18.4583 3C17.0085 3 15.8333 4.17525 15.8333 5.625C15.8333 5.91 15.8782 6.18377 15.9615 6.43877C16.3042 7.49102 17.2935 8.25 18.4583 8.25C19.908 8.25 21.0833 7.07475 21.0833 5.625C21.0833 4.17525 19.908 3 18.4583 3ZM14.3333 5.625C14.3333 3.3465 16.1798 1.5 18.4583 1.5C20.7368 1.5 22.5833 3.3465 22.5833 5.625C22.5833 7.9035 20.7368 9.75 18.4583 9.75C16.932 9.75 15.6008 8.92127 14.8868 7.69052L9.62325 10.3267C9.91575 11.2185 9.89625 12.1958 9.5685 13.0755L15.273 15.7538C16.029 14.8365 17.175 14.25 18.4583 14.25C20.7368 14.25 22.5833 16.0965 22.5833 18.375C22.5833 20.6535 20.7368 22.5 18.4583 22.5C16.1798 22.5 14.3333 20.6535 14.3333 18.375C14.3333 17.919 14.4075 17.4795 14.5448 17.0685L8.79001 14.367C8.03551 15.2145 6.9345 15.75 5.70825 15.75C3.42975 15.75 1.58325 13.9035 1.58325 11.625C1.58325 9.3465 3.42975 7.5 5.70825 7.5C6.99525 7.5 8.14351 8.08951 8.89951 9.01126L14.3828 6.2655C14.3505 6.05625 14.3333 5.8425 14.3333 5.625ZM5.70825 9C4.2585 9 3.08325 10.1753 3.08325 11.625C3.08325 13.0747 4.2585 14.25 5.70825 14.25C6.6405 14.25 7.46026 13.7648 7.92676 13.029C8.43601 12.2258 8.46449 11.1698 7.99874 10.341C7.54799 9.53927 6.69075 9 5.70825 9ZM18.4583 15.75C17.4833 15.75 16.6312 16.281 16.1782 17.0738C15.9585 17.4563 15.8333 17.9002 15.8333 18.375C15.8333 19.8247 17.0085 21 18.4583 21C19.908 21 21.0833 19.8247 21.0833 18.375C21.0833 16.9253 19.908 15.75 18.4583 15.75Z" fill="black"/>
</g>
</svg>
