<svg width="48" height="48" viewBox="0 0 48 48" fill="none" xmlns="http://www.w3.org/2000/svg">
<g id="act">
<g id="Group">
<path id="Vector" d="M38.9287 0H15.7063C15.6974 0 15.6887 0.00103672 15.6797 0.00134773C15.6711 0.00165875 15.6625 0.00207343 15.6539 0.00259179C15.6207 0.0047689 15.5878 0.00850108 15.5559 0.0148251C15.5553 0.0149287 15.5548 0.0149287 15.5544 0.0150324C15.5198 0.0218747 15.4863 0.0315162 15.4535 0.0428164C15.4477 0.0447862 15.442 0.047067 15.4362 0.0491404C15.4052 0.0606479 15.3751 0.0736069 15.346 0.0888467C15.3443 0.0897797 15.3424 0.0905054 15.3406 0.0914384C15.3103 0.107611 15.2815 0.126168 15.2538 0.146073C15.2475 0.150531 15.2415 0.155197 15.2354 0.159862C15.2079 0.180907 15.1813 0.202989 15.1569 0.227352C15.1568 0.227456 15.1566 0.227559 15.1565 0.227663L6.86278 8.5214C6.86267 8.5215 6.86257 8.52161 6.86247 8.52171C6.8381 8.54618 6.81592 8.57272 6.79498 8.60019C6.79031 8.60641 6.78564 8.61253 6.78108 8.61875C6.76118 8.64643 6.74273 8.67515 6.72655 8.70531C6.72552 8.70739 6.72458 8.70946 6.72355 8.71153C6.70862 8.74015 6.69576 8.7699 6.68436 8.80048C6.68208 8.8066 6.6798 8.81261 6.67762 8.81883C6.66642 8.85128 6.65688 8.88446 6.65004 8.91877C6.64983 8.92002 6.64973 8.92137 6.64942 8.92261C6.64341 8.95381 6.63978 8.98575 6.6375 9.01809C6.63688 9.02721 6.63646 9.03623 6.63615 9.04536C6.63605 9.05406 6.63501 9.06257 6.63501 9.07127V45.5637C6.63501 46.9071 7.72792 48 9.07129 48H38.9287C40.2721 48 41.365 46.9071 41.365 45.5637V2.43629C41.365 1.09291 40.2721 0 38.9287 0ZM14.9287 2.65462V7.41253C14.9287 7.89844 14.5334 8.29374 14.0475 8.29374H9.28963L14.9287 2.65462ZM39.81 45.5637C39.81 46.0496 39.4147 46.4449 38.9287 46.4449H9.07129C8.58539 46.4449 8.19009 46.0496 8.19009 45.5637V9.84881H14.0475C15.3909 9.84881 16.4838 8.75591 16.4838 7.41253V1.55508H38.9287C39.4147 1.55508 39.81 1.95038 39.81 2.43629V45.5637Z" fill="#784F33"/>
<path id="Vector_2" d="M14.0476 22.2894H33.9525C34.3819 22.2894 34.7301 21.9414 34.7301 21.5119C34.7301 21.0824 34.3819 20.7344 33.9525 20.7344H14.0476C13.6181 20.7344 13.27 21.0824 13.27 21.5119C13.27 21.9414 13.6181 22.2894 14.0476 22.2894Z" fill="#784F33"/>
<path id="Vector_3" d="M14.0476 26.4363H33.9525C34.3819 26.4363 34.7301 26.0883 34.7301 25.6588C34.7301 25.2293 34.3819 24.8812 33.9525 24.8812H14.0476C13.6181 24.8812 13.27 25.2293 13.27 25.6588C13.27 26.0883 13.6181 26.4363 14.0476 26.4363Z" fill="#784F33"/>
<path id="Vector_4" d="M14.0476 30.5832H24C24.4295 30.5832 24.7776 30.2351 24.7776 29.8056C24.7776 29.3761 24.4295 29.0281 24 29.0281H14.0476C13.6181 29.0281 13.27 29.3761 13.27 29.8056C13.27 30.2351 13.6181 30.5832 14.0476 30.5832Z" fill="#784F33"/>
<path id="Vector_5" d="M24.7776 33.9525C24.7776 33.523 24.4295 33.1749 24 33.1749H14.0476C13.6181 33.1749 13.27 33.523 13.27 33.9525C13.27 34.382 13.6181 34.73 14.0476 34.73H24C24.4295 34.73 24.7776 34.382 24.7776 33.9525Z" fill="#784F33"/>
<path id="Vector_6" d="M28.0951 13.4254C28.0951 12.9959 27.747 12.6479 27.3176 12.6479C26.8882 12.6479 26.54 12.9959 26.54 13.4254C26.54 14.9412 27.9456 16.166 29.8575 16.4302V16.5356C29.8575 16.9651 30.2057 17.3131 30.6351 17.3131C31.0645 17.3131 31.4126 16.9651 31.4126 16.5356V16.4302C33.3245 16.1659 34.7301 14.9411 34.7301 13.4254C34.7301 11.9098 33.3245 10.6849 31.4126 10.4207V7.44265C32.3492 7.63807 33.175 8.16814 33.175 8.86388C33.175 9.2934 33.5232 9.64142 33.9526 9.64142C34.382 9.64142 34.7301 9.2934 34.7301 8.86388C34.7301 7.3481 33.3245 6.12332 31.4126 5.85917V5.75373C31.4126 5.32422 31.0645 4.9762 30.6351 4.9762C30.2057 4.9762 29.8575 5.32422 29.8575 5.75373V5.85917C27.9456 6.12343 26.54 7.3482 26.54 8.86388C26.54 10.3796 27.9456 11.6044 29.8575 11.8686V14.8467C28.921 14.6513 28.0951 14.1213 28.0951 13.4254ZM33.175 13.4254C33.175 14.1213 32.3492 14.6513 31.4126 14.8467V12.0042C32.3492 12.1996 33.175 12.7296 33.175 13.4254ZM28.0951 8.86388C28.0951 8.16804 28.921 7.63807 29.8575 7.44265V10.2851C28.921 10.0897 28.0951 9.55973 28.0951 8.86388Z" fill="#784F33"/>
<path id="Vector_7" d="M35.4827 33.2256C35.1087 33.0144 34.6344 33.1462 34.4233 33.5201L32.8244 36.35L32.6054 36.1815C32.4207 36.0393 32.1821 35.9873 31.9553 36.0401C31.7283 36.0928 31.5369 36.2444 31.4338 36.4532L30.6261 38.0886L30.3665 37.791C29.9856 37.3543 29.419 37.159 28.8498 37.2697C28.2809 37.3799 27.8278 37.7726 27.6376 38.3199L26.7455 40.8874L24.623 38.2064C24.491 38.0397 24.2965 37.9342 24.0847 37.9147C23.8734 37.896 23.6626 37.9633 23.5023 38.103L21.2487 40.0686C20.925 40.3509 20.8915 40.8421 21.1737 41.1657C21.4561 41.4893 21.9471 41.5226 22.2708 41.2406L23.9098 39.811L25.9366 42.3711C26.165 42.6594 26.5105 42.8232 26.8711 42.8232C26.9372 42.8232 27.0039 42.8176 27.0704 42.8064C27.4994 42.7337 27.8547 42.4332 27.9975 42.0222L29.1065 38.8305C29.1104 38.8192 29.1163 38.8023 29.1457 38.7965C29.1747 38.7908 29.1867 38.8042 29.1945 38.8133L30.2206 39.9899C30.3915 40.1859 30.6492 40.2835 30.9068 40.2499C31.1647 40.2165 31.3887 40.0563 31.5038 39.8232L32.408 37.9925L32.5858 38.1293C32.7644 38.2669 32.9938 38.3197 33.2148 38.2753C33.4357 38.2304 33.6262 38.0919 33.7372 37.8958L35.777 34.2853C35.9884 33.9113 35.8565 33.4369 35.4827 33.2256Z" fill="#784F33"/>
</g>
</g>
</svg>
