<svg width="46" height="46" viewBox="0 0 46 46" fill="none" xmlns="http://www.w3.org/2000/svg">
<g id="024-family-insurance-1" clip-path="url(#clip0_1_157)">
<path id="Vector" d="M26.1603 34.0854C27.4525 32.791 27.8382 30.8459 27.1382 29.1562C26.4382 27.4664 24.7899 26.3643 22.961 26.3629H22.9589C20.4618 26.3633 18.4381 28.388 18.4385 30.8848C18.4392 33.3819 20.4636 35.4055 22.9607 35.4052H22.9621V34.677L22.966 35.4091C24.1648 35.4123 25.3151 34.9356 26.1603 34.0854ZM22.9625 33.9438H22.9607C21.271 33.9431 19.9013 32.5727 19.902 30.883C19.9027 29.1929 21.2731 27.8236 22.9628 27.8243H22.9642C24.654 27.8236 26.0244 29.1933 26.0247 30.883C26.0254 32.5727 24.6557 33.9431 22.966 33.9438H22.9625Z" fill="#784F33"/>
<path id="Vector_2" d="M9.15075 29.0095C9.15075 28.606 8.82358 28.2788 8.42006 28.2788C8.01654 28.2788 7.68937 28.606 7.68937 29.0095C7.6908 29.0687 7.66012 29.124 7.6091 29.154C7.55808 29.184 7.49457 29.184 7.44355 29.154C7.39253 29.124 7.36185 29.0687 7.36327 29.0095C7.36327 28.606 7.03611 28.2788 6.63259 28.2788C6.22907 28.2788 5.9019 28.606 5.9019 29.0095C5.89762 29.5928 6.20623 30.1337 6.71072 30.4266C7.21485 30.7195 7.83779 30.7195 8.34192 30.4266C8.84641 30.1337 9.15503 29.5928 9.15075 29.0095Z" fill="#784F33"/>
<path id="Vector_3" d="M11.9947 30.6343C12.8912 30.6332 13.618 29.9064 13.6191 29.0095C13.6191 28.606 13.2919 28.2788 12.8884 28.2788C12.4849 28.2788 12.1577 28.606 12.1577 29.0095C12.1577 29.0998 12.0846 29.1725 11.9947 29.1725C11.9044 29.1725 11.8312 29.0998 11.8312 29.0095C11.8312 28.606 11.5044 28.2788 11.1006 28.2788C10.697 28.2788 10.3699 28.606 10.3699 29.0095C10.3709 29.9064 11.0977 30.6332 11.9947 30.6343Z" fill="#784F33"/>
<path id="Vector_4" d="M41.4727 35.5878H39.6061V34.8029C39.7887 34.6405 40.0306 34.465 40.2165 34.2741C41.3397 33.1381 41.973 31.6075 41.9808 30.0102V28.3505C42.1817 28.3951 42.3865 28.4172 42.5923 28.4165C43.5139 28.4151 44.3876 28.0058 44.9785 27.2983C45.5693 26.5908 45.8166 25.6582 45.6539 24.7509C45.5104 23.9303 45.0416 23.2021 44.353 22.7326C43.6648 22.2631 42.8157 22.0922 41.999 22.2585C41.5377 22.3476 41.1013 22.536 40.7199 22.8108C39.1669 20.7778 36.4907 19.9615 34.0674 20.7821C31.6445 21.6023 30.0144 23.8768 30.0158 26.4349V30.0102C30.0186 31.6058 30.6473 33.1371 31.7669 34.2741C32.017 34.5242 32.2867 34.754 32.5732 34.9616V35.5878H30.7154C29.5798 35.5867 28.4902 36.0348 27.6839 36.834C26.6021 36.0252 25.2881 35.5882 23.9373 35.5878H21.9954C20.6481 35.5835 19.3359 36.0138 18.2527 36.8144C17.4489 36.0316 16.3725 35.5917 15.2508 35.5878H13.3926V34.8225C13.5753 34.6602 13.8172 34.4846 14.0031 34.2938C15.1262 33.1581 15.7599 31.6272 15.7674 30.0299V25.4495H16.284C16.477 25.4513 16.6625 25.3757 16.7999 25.2401C16.9369 25.1045 17.0143 24.9197 17.0147 24.7267C17.0115 22.3498 15.0831 20.425 12.7062 20.426H9.02314C8.51081 20.4292 8.01203 20.5898 7.59424 20.8863C5.31084 21.7929 3.80914 23.9978 3.80237 26.4546V30.0299C3.80522 31.6254 4.43387 33.1567 5.55345 34.2938C5.80355 34.5439 6.07328 34.774 6.35977 34.9816V35.5878H4.49309C2.118 35.5878 0.148926 37.5344 0.148926 39.9098V43.072C0.166051 43.4834 0.504637 43.8084 0.916362 43.808H15.676V45.2359C15.68 45.6487 16.0078 45.9855 16.4203 46.0001H29.5035C29.907 46.0001 30.1985 45.6394 30.1985 45.2359V43.808H45.0498C45.4655 43.7991 45.8019 43.4677 45.8169 43.0524V39.8899C45.8169 37.5148 43.8482 35.5878 41.4727 35.5878ZM43.9417 26.2455C43.6973 26.6058 43.318 26.852 42.8899 26.9284C42.5834 26.9858 42.2673 26.9508 41.9808 26.8281V26.5948L44.2096 24.925C44.216 24.9525 44.216 24.9796 44.221 25.0082C44.2967 25.4413 44.1961 25.8869 43.9417 26.2455ZM42.2791 23.6927C42.6109 23.6246 42.9552 23.6599 43.2663 23.7937L41.7542 24.9183C41.6797 24.6339 41.5837 24.3553 41.4674 24.0848C41.7 23.8872 41.9794 23.7519 42.2787 23.6927H42.2791ZM40.457 25.9065C40.1163 25.5159 39.8612 25.0581 39.7081 24.5629C39.636 24.2743 39.3959 24.0584 39.1012 24.0167C38.8065 23.9753 38.5161 24.1166 38.367 24.3742C37.4811 25.9044 35.9876 26.7682 33.9265 26.9416C33.1087 27.0044 32.2863 26.9665 31.4779 26.8292V26.4349C31.4779 26.1488 31.505 25.863 31.5592 25.5819C31.926 25.6354 32.2963 25.6621 32.667 25.6621C33.0192 25.6625 33.371 25.6379 33.7195 25.5883C35.086 25.3931 36.9577 24.7138 38.4133 22.6431C39.5479 23.3709 40.2975 24.5679 40.4566 25.9065H40.457ZM35.983 21.9284C36.3365 21.9288 36.689 21.9705 37.0333 22.0533C35.406 24.1519 33.2564 24.2925 32.0848 24.179C32.8897 22.7876 34.3749 21.9299 35.9822 21.9284H35.983ZM31.4772 30.0102V28.3091C32.0373 28.3912 32.6025 28.4329 33.1687 28.434C33.4355 28.434 33.7145 28.4243 34.0014 28.4015C36.0433 28.2395 37.7126 27.4782 38.8715 26.1802C39.2735 26.8624 39.8401 27.4329 40.5194 27.8396V30.0102C40.5137 31.2254 40.0321 32.3903 39.1776 33.2548C38.347 34.1257 37.196 34.6188 35.9922 34.6188C34.7888 34.6188 33.6378 34.1257 32.8072 33.2548C31.956 32.3893 31.4782 31.224 31.4772 30.0102ZM35.9851 36.0802C36.7261 36.0851 37.4604 35.941 38.1447 35.6563V35.9075L36.0315 37.234L34.0346 35.9175V35.7373C34.66 35.9631 35.3201 36.0794 35.9851 36.0802ZM9.02314 21.8874H12.7062C13.9899 21.8938 15.1134 22.7515 15.4584 23.9881H9.02314C8.44302 23.9881 7.97278 23.5175 7.97278 22.9378C7.97278 22.3576 8.44302 21.8874 9.02314 21.8874ZM6.52889 23.3213C6.63164 24.0384 7.03766 24.6771 7.64383 25.0742C6.98735 25.68 6.15284 26.0582 5.26481 26.1534C5.33938 25.0899 5.78714 24.087 6.52889 23.3213ZM5.26374 30.0299V27.618C6.26844 27.5495 7.87609 27.1849 9.27004 25.4495H14.306V30.0299C14.2989 31.2458 13.8154 32.4107 12.9595 33.2744C12.1293 34.1453 10.9783 34.6384 9.77488 34.6384C8.57146 34.6384 7.42084 34.1453 6.59061 33.2744C5.74004 32.4085 5.26374 31.2433 5.26374 30.0299ZM9.77167 36.0998C10.5127 36.1048 11.247 35.9606 11.9313 35.6763V35.9267L9.81841 37.2536L7.82115 35.9371V35.7569C8.44659 35.9828 9.10663 36.0991 9.77167 36.0998ZM1.6103 39.9098C1.6103 38.3404 2.92361 37.0492 4.49309 37.0492H6.84321L9.09985 38.5155V42.3467H1.6103V39.9098ZM10.5612 42.3467V38.5262L12.8778 37.0492H15.2508C15.9665 37.0527 16.6543 37.3267 17.177 37.8155C16.2112 38.949 15.6793 40.3886 15.676 41.8778V42.3467H10.5612ZM28.7371 44.5387H17.1374V41.8843C17.1485 39.2091 19.3213 37.0467 21.9964 37.0492H23.9366C26.6075 37.0492 28.7371 39.2291 28.7371 41.9014V44.5387ZM28.731 37.8366C29.2673 37.3296 29.9776 37.0481 30.7154 37.0492H33.0656L35.3133 38.4959V42.3467H30.1985V41.9028C30.207 40.4161 29.6868 38.9751 28.731 37.8366ZM44.3555 42.3467H36.7747V38.5063L39.1002 37.0492H41.4727C43.0426 37.0492 44.3555 38.3204 44.3555 39.8899V42.3467Z" fill="#784F33"/>
<path id="Vector_5" d="M35.3727 29.9623C35.3727 29.5587 35.0456 29.2316 34.6421 29.2316C34.2385 29.2316 33.9114 29.5587 33.9114 29.9623C33.9114 30.0525 33.8382 30.1253 33.748 30.1253C33.6581 30.1253 33.5849 30.0525 33.5849 29.9623C33.5849 29.5587 33.2577 29.2316 32.8542 29.2316C32.4507 29.2316 32.1235 29.5587 32.1235 29.9623C32.1235 30.8596 32.851 31.5867 33.748 31.5867C34.6453 31.5867 35.3727 30.8596 35.3727 29.9623Z" fill="#784F33"/>
<path id="Vector_6" d="M38.2172 31.5874C39.1141 31.5863 39.8409 30.8596 39.8416 29.963C39.8416 29.5591 39.5148 29.2323 39.1109 29.2323C38.7074 29.2323 38.3802 29.5591 38.3802 29.963C38.3817 30.0219 38.351 30.0772 38.3 30.1075C38.2489 30.1375 38.1858 30.1375 38.1348 30.1075C38.0838 30.0772 38.0527 30.0219 38.0541 29.963C38.0541 29.5591 37.727 29.2323 37.3235 29.2323C36.9199 29.2323 36.5928 29.5591 36.5928 29.963C36.5938 30.8596 37.3206 31.5863 38.2172 31.5874Z" fill="#784F33"/>
<path id="Vector_7" d="M33.997 14.3722C33.9965 14.3655 33.9963 14.3588 33.9957 14.3522C33.9941 14.3379 33.9914 14.3237 33.989 14.3095C33.9873 14.2997 33.9859 14.2899 33.9838 14.2803C33.9817 14.2709 33.9788 14.2614 33.9763 14.252C33.9726 14.2379 33.969 14.2237 33.9644 14.2099C33.9623 14.2038 33.9597 14.1977 33.9575 14.1916C33.9514 14.1749 33.945 14.1583 33.9377 14.1422C33.9372 14.141 33.9369 14.1397 33.9363 14.1385L30.8431 7.4199V6.7619H31.6816C32.0903 6.7619 32.4215 6.4421 32.4215 6.04762C32.4215 5.65314 32.0903 5.33333 31.6816 5.33333H23.7399V4.35867C24.6564 4.05981 25.3184 3.22248 25.3184 2.2381C25.3184 1.004 24.2784 0 23 0C21.7216 0 20.6816 1.004 20.6816 2.2381C20.6816 3.22248 21.3436 4.05981 22.2601 4.35867V5.33333H14.3184C13.9097 5.33333 13.5785 5.65314 13.5785 6.04762C13.5785 6.4421 13.9097 6.7619 14.3184 6.7619H15.157V7.4199L12.0637 14.1385C12.0631 14.1397 12.0627 14.141 12.0623 14.1423C12.055 14.1584 12.0486 14.1749 12.0426 14.1915C12.0403 14.1976 12.0377 14.2037 12.0356 14.2099C12.031 14.2237 12.0274 14.2378 12.0237 14.252C12.0211 14.2614 12.0183 14.2709 12.0162 14.2803C12.0141 14.2899 12.0128 14.2998 12.011 14.3095C12.0086 14.3237 12.0059 14.3379 12.0043 14.3522C12.0037 14.3588 12.0035 14.3655 12.003 14.3722C12.0015 14.3896 12.0003 14.407 12.0002 14.4245C12.0002 14.4259 12 14.4272 12 14.4286C12 16.0828 13.7482 17.4286 15.8969 17.4286C18.0456 17.4286 19.7937 16.0828 19.7937 14.4286C19.7937 14.4271 19.7935 14.4258 19.7935 14.4245C19.7934 14.407 19.7922 14.3897 19.7908 14.3722C19.7903 14.3655 19.7901 14.3588 19.7894 14.3522C19.7878 14.3379 19.7851 14.3237 19.7827 14.3095C19.781 14.2997 19.7796 14.2899 19.7775 14.2803C19.7755 14.2709 19.7725 14.2614 19.77 14.252C19.7663 14.2379 19.7627 14.2237 19.7581 14.2099C19.756 14.2038 19.7535 14.1977 19.7512 14.1916C19.7451 14.1749 19.7388 14.1583 19.7315 14.1422C19.7309 14.141 19.7306 14.1397 19.73 14.1385L16.6368 7.4199V6.7619H22.2601V13.0699C21.3436 13.3688 20.6816 14.2061 20.6816 15.1905V20.5714H19.0538C18.6451 20.5714 18.3139 20.8912 18.3139 21.2857C18.3139 21.6802 18.6451 22 19.0538 22H26.9462C27.3549 22 27.6861 21.6802 27.6861 21.2857C27.6861 20.8912 27.3549 20.5714 26.9462 20.5714H25.3184V15.1905C25.3184 14.2061 24.6564 13.3688 23.7399 13.0699V6.7619H29.3632V7.4199L26.27 14.1385C26.2694 14.1397 26.269 14.141 26.2685 14.1423C26.2612 14.1584 26.2549 14.1749 26.2489 14.1915C26.2466 14.1976 26.244 14.2037 26.2419 14.2099C26.2373 14.2237 26.2337 14.2378 26.23 14.252C26.2274 14.2614 26.2245 14.2709 26.2225 14.2803C26.2204 14.2899 26.2191 14.2998 26.2173 14.3095C26.2149 14.3237 26.2122 14.3379 26.2106 14.3522C26.2099 14.3588 26.2097 14.3655 26.2092 14.3722C26.2078 14.3896 26.2066 14.407 26.2065 14.4245C26.2065 14.4259 26.2063 14.4272 26.2063 14.4286C26.2063 16.0828 27.9544 17.4286 30.1031 17.4286C32.2518 17.4286 34 16.0828 34 14.4286C34 14.4271 33.9998 14.4258 33.9998 14.4245C33.9997 14.407 33.9985 14.3896 33.997 14.3722ZM23 1.42857C23.4624 1.42857 23.8386 1.79171 23.8386 2.2381C23.8386 2.68448 23.4624 3.04762 23 3.04762C22.5376 3.04762 22.1614 2.68448 22.1614 2.2381C22.1614 1.79171 22.5376 1.42857 23 1.42857ZM15.8969 9.33019L17.9152 13.7143H13.8784L15.8969 9.33019ZM15.8969 16C14.9792 16 14.1613 15.647 13.7536 15.1429H18.04C17.6324 15.647 16.8145 16 15.8969 16ZM23.8386 20.5714H22.1614V15.1905C22.1614 14.7441 22.5376 14.381 23 14.381C23.4624 14.381 23.8386 14.7441 23.8386 15.1905V20.5714ZM30.1031 9.33019L32.1215 13.7143H28.0847L30.1031 9.33019ZM30.1031 16C29.1855 16 28.3676 15.647 27.9599 15.1429H32.2463C31.8387 15.647 31.0208 16 30.1031 16Z" fill="#784F33"/>
</g>
<defs>
<clipPath id="clip0_1_157">
<rect width="46" height="46" fill="white"/>
</clipPath>
</defs>
</svg>
