<svg width="48" height="48" viewBox="0 0 48 48" fill="none" xmlns="http://www.w3.org/2000/svg">
<g id="folder">
<g id="Group">
<path id="Vector" d="M44.7343 9.12309H37.27C36.7841 9.12309 36.3888 8.72779 36.3888 8.24188C36.3888 5.98391 34.5517 4.14685 32.2937 4.14685H3.26566C1.46498 4.14685 0 5.61184 0 7.41251V40.5875C0 42.3881 1.46498 43.8531 3.26566 43.8531H44.7343C46.535 43.8531 48 42.3881 48 40.5875V12.3888C48 10.5881 46.535 9.12309 44.7343 9.12309ZM34.8337 8.24188C34.8337 8.55259 34.8928 8.84961 34.9993 9.12309H30.635C30.1491 9.12309 29.7538 8.72779 29.7538 8.24188C29.7538 7.28292 29.4215 6.40057 28.8673 5.70193H32.2937C33.6942 5.70193 34.8337 6.84138 34.8337 8.24188ZM24 9.12309C23.5141 9.12309 23.1188 8.72779 23.1188 8.24188C23.1188 7.28292 22.7865 6.40057 22.2323 5.70193H25.6587C27.0592 5.70193 28.1987 6.84138 28.1987 8.24188C28.1987 8.55259 28.2578 8.84961 28.3643 9.12309H24ZM15.9985 5.70193H19.0238C20.4243 5.70193 21.5637 6.84138 21.5637 8.24188C21.5637 8.55259 21.6228 8.84961 21.7293 9.12309H17.365C16.8791 9.12309 16.4838 8.72779 16.4838 8.24188V7.41251C16.4838 6.78571 16.3059 6.19976 15.9985 5.70193ZM46.4449 40.5875C46.4449 41.5307 45.6775 42.298 44.7343 42.298H3.26566C2.32245 42.298 1.55508 41.5307 1.55508 40.5875V7.41251C1.55508 6.4693 2.32245 5.70193 3.26566 5.70193H12.3888H13.2181C14.1613 5.70193 14.9287 6.4693 14.9287 7.41251V8.24188C14.9287 9.58526 16.0216 10.6782 17.365 10.6782H44.7343C45.6775 10.6782 46.4449 11.4455 46.4449 12.3888V40.5875Z" fill="#784F33"/>
<path id="Vector_2" d="M6.5832 17.3131H17.3651C17.7945 17.3131 18.1426 16.965 18.1426 16.5356C18.1426 16.1062 17.7945 15.7581 17.3651 15.7581H6.5832C6.15379 15.7581 5.80566 16.1062 5.80566 16.5356C5.80566 16.965 6.15379 17.3131 6.5832 17.3131Z" fill="#784F33"/>
<path id="Vector_3" d="M23.1707 24.0519H6.5832C6.15379 24.0519 5.80566 24.4 5.80566 24.8294C5.80566 25.2588 6.15379 25.607 6.5832 25.607H23.1707C23.6001 25.607 23.9482 25.2588 23.9482 24.8294C23.9482 24.4 23.6001 24.0519 23.1707 24.0519Z" fill="#784F33"/>
<path id="Vector_4" d="M23.1707 19.9049H6.5832C6.15379 19.9049 5.80566 20.253 5.80566 20.6824C5.80566 21.1119 6.15379 21.46 6.5832 21.46H23.1707C23.6001 21.46 23.9482 21.1119 23.9482 20.6824C23.9482 20.253 23.6001 19.9049 23.1707 19.9049Z" fill="#784F33"/>
<path id="Vector_5" d="M31.0496 21.5637C30.3923 21.5637 29.8574 22.0986 29.8574 22.7559C29.8574 23.4133 30.3923 23.9482 31.0496 23.9482C31.707 23.9482 32.2419 23.4133 32.2419 22.7559C32.2419 22.0986 31.707 21.5637 31.0496 21.5637Z" fill="#784F33"/>
<path id="Vector_6" d="M31.0498 18.2462C28.5631 18.2462 26.54 20.2693 26.54 22.7559C26.54 25.2426 28.5631 27.2657 31.0498 27.2657C33.5364 27.2657 35.5595 25.2426 35.5595 22.7559C35.5595 20.2693 33.5364 18.2462 31.0498 18.2462ZM31.0498 25.7106C29.4206 25.7106 28.0951 24.3851 28.0951 22.7559C28.0951 21.1267 29.4206 19.8013 31.0498 19.8013C32.679 19.8013 34.0044 21.1267 34.0044 22.7559C34.0044 24.3851 32.679 25.7106 31.0498 25.7106Z" fill="#784F33"/>
</g>
</g>
</svg>
