<svg width="48" height="48" viewBox="0 0 48 48" fill="none" xmlns="http://www.w3.org/2000/svg">
<g id="004-home-insurance">
<path id="Vector" d="M4.4467 32.9037H7.04784C7.47034 32.9037 7.8129 32.5611 7.8129 32.1386C7.8129 31.7161 7.47034 31.3735 7.04784 31.3735H4.4467C4.0242 31.3735 3.68164 31.7161 3.68164 32.1386C3.68164 32.5611 4.0242 32.9037 4.4467 32.9037Z" fill="#784F33"/>
<path id="Vector_2" d="M7.04784 35.9637H4.4467C4.0242 35.9637 3.68164 36.3063 3.68164 36.7288C3.68164 37.1513 4.0242 37.4939 4.4467 37.4939H7.04784C7.47034 37.4939 7.8129 37.1513 7.8129 36.7288C7.8129 36.3063 7.47034 35.9637 7.04784 35.9637Z" fill="#784F33"/>
<path id="Vector_3" d="M7.04784 40.6498H4.4467C4.0242 40.6498 3.68164 40.9923 3.68164 41.4148C3.68164 41.8373 4.0242 42.1799 4.4467 42.1799H7.04784C7.47034 42.1799 7.8129 41.8373 7.8129 41.4148C7.8129 40.9923 7.47034 40.6498 7.04784 40.6498Z" fill="#784F33"/>
<path id="Vector_4" d="M15.0146 22.2312C15.4371 22.2312 15.7796 21.8887 15.7796 21.4662V18.4933C15.7796 18.0708 15.4371 17.7283 15.0146 17.7283C14.5921 17.7283 14.2495 18.0708 14.2495 18.4933V21.4662C14.2495 21.8887 14.5921 22.2312 15.0146 22.2312Z" fill="#784F33"/>
<path id="Vector_5" d="M19.7006 22.2312C20.1231 22.2312 20.4657 21.8887 20.4657 21.4662V18.4933C20.4657 18.0708 20.1231 17.7283 19.7006 17.7283C19.2781 17.7283 18.9355 18.0708 18.9355 18.4933V21.4662C18.9355 21.8887 19.2781 22.2312 19.7006 22.2312Z" fill="#784F33"/>
<path id="Vector_6" d="M15.0146 31.521C15.4371 31.521 15.7796 31.1785 15.7796 30.756V27.7831C15.7796 27.3606 15.4371 27.0181 15.0146 27.0181C14.5921 27.0181 14.2495 27.3606 14.2495 27.7831V30.756C14.2495 31.1785 14.5921 31.521 15.0146 31.521Z" fill="#784F33"/>
<path id="Vector_7" d="M19.7006 31.521C20.1231 31.521 20.4657 31.1785 20.4657 30.756V27.7831C20.4657 27.3606 20.1231 27.0181 19.7006 27.0181C19.2781 27.0181 18.9355 27.3606 18.9355 27.7831V30.756C18.9355 31.1785 19.2781 31.521 19.7006 31.521Z" fill="#784F33"/>
<path id="Vector_8" d="M24.2907 31.521C24.7132 31.521 25.0558 31.1785 25.0558 30.756V27.7831C25.0558 27.3606 24.7132 27.0181 24.2907 27.0181C23.8682 27.0181 23.5256 27.3606 23.5256 27.7831V30.756C23.5256 31.1785 23.8682 31.521 24.2907 31.521Z" fill="#784F33"/>
<path id="Vector_9" d="M15.0146 40.8112C15.4371 40.8112 15.7796 40.4686 15.7796 40.0461V37.0733C15.7796 36.6508 15.4371 36.3082 15.0146 36.3082C14.5921 36.3082 14.2495 36.6508 14.2495 37.0733V40.0461C14.2495 40.4686 14.5921 40.8112 15.0146 40.8112Z" fill="#784F33"/>
<path id="Vector_10" d="M19.7006 40.8112C20.1231 40.8112 20.4657 40.4686 20.4657 40.0461V37.0733C20.4657 36.6508 20.1231 36.3082 19.7006 36.3082C19.2781 36.3082 18.9355 36.6508 18.9355 37.0733V40.0461C18.9355 40.4686 19.2781 40.8112 19.7006 40.8112Z" fill="#784F33"/>
<path id="Vector_11" d="M24.2907 40.8112C24.7132 40.8112 25.0558 40.4686 25.0558 40.0461V37.0733C25.0558 36.6508 24.7132 36.3082 24.2907 36.3082C23.8682 36.3082 23.5256 36.6508 23.5256 37.0733V40.0461C23.5256 40.4686 23.8682 40.8112 24.2907 40.8112Z" fill="#784F33"/>
<path id="Vector_12" d="M35.2657 0.0881348C28.8258 0.0888818 23.4001 4.89742 22.6257 11.2906H20.7523V4.47081C20.7523 4.0483 20.4097 3.70574 19.9872 3.70574C19.5647 3.70574 19.2222 4.0483 19.2222 4.47081V11.2906H12.4446C10.9585 11.3044 9.75977 12.5099 9.75454 13.996V26.8788H2.69004C1.21334 26.8788 0 28.0338 0 29.5102V47.1529C0.00560349 47.578 0.352272 47.9191 0.77739 47.918H39.1915C39.6177 47.9195 39.9659 47.5791 39.9745 47.1529V27.002C39.9711 26.2295 39.6349 25.4962 39.0518 24.9896C44.3717 23.3254 47.9953 18.3996 48.0002 12.8252C48.0002 5.80556 42.285 0.0881348 35.2657 0.0881348ZM12.4446 12.8207H22.5357C22.5253 14.6344 22.9078 16.429 23.6568 18.0805C23.5772 18.2038 23.532 18.3461 23.5257 18.493V21.4662C23.5257 21.8887 23.8682 22.2312 24.2907 22.2312C24.7132 22.2312 25.0558 21.8887 25.0558 21.4662V20.4758C25.9165 21.5181 26.7772 22.4371 27.9248 23.1962V46.3878H11.2847V13.996C11.2888 13.3546 11.8032 12.8334 12.4446 12.8207ZM1.53012 29.5102C1.53012 28.8777 2.05723 28.4089 2.69004 28.4089H9.75454V46.3878H1.53012V29.5102ZM38.4444 46.3878H29.4549V41.8931H34.3688C34.7913 41.8931 35.1338 41.5505 35.1338 41.128C35.1338 40.7055 34.7913 40.363 34.3688 40.363H29.4549V37.2071H34.3688C34.7913 37.2071 35.1338 36.8645 35.1338 36.442C35.1338 36.0195 34.7913 35.677 34.3688 35.677H29.4549V32.6167H34.3688C34.7913 32.6167 35.1338 32.2742 35.1338 31.8517C35.1338 31.4292 34.7913 31.0866 34.3688 31.0866H29.4549V24.1342C30.6025 24.7636 31.9682 25.191 33.3661 25.4036C33.4849 25.6658 33.7479 25.832 34.0355 25.8272H37.2788C37.921 25.8395 38.4373 26.3599 38.4444 27.002V46.3878ZM35.2657 24.0318C29.0798 24.0318 24.0655 19.0174 24.0655 12.8319C24.0655 6.64645 29.0798 1.63171 35.2653 1.63171C41.4508 1.63171 46.4652 6.64608 46.4652 12.8319C46.4585 19.0145 41.4482 24.0247 35.2657 24.0318Z" fill="#784F33"/>
<path id="Vector_13" d="M44.9974 15.4123C44.997 15.4066 44.9968 15.4007 44.9963 15.3951C44.9949 15.3827 44.9926 15.3705 44.9905 15.3582C44.989 15.3498 44.9878 15.3413 44.986 15.333C44.9842 15.3248 44.9817 15.3167 44.9796 15.3085C44.9763 15.2964 44.9732 15.2841 44.9692 15.2722C44.9675 15.2669 44.9652 15.2617 44.9633 15.2564C44.958 15.2419 44.9525 15.2276 44.9462 15.2137C44.9457 15.2126 44.9455 15.2116 44.945 15.2105L42.2735 9.4081V8.83983H42.9978C43.3507 8.83983 43.6368 8.56363 43.6368 8.22294C43.6368 7.88226 43.3507 7.60606 42.9978 7.60606H36.139V6.7643C36.9305 6.5062 37.5022 5.78305 37.5022 4.9329C37.5022 3.86709 36.604 3 35.5 3C34.396 3 33.4978 3.86709 33.4978 4.9329C33.4978 5.78305 34.0695 6.5062 34.861 6.7643V7.60606H28.0022C27.6493 7.60606 27.3632 7.88226 27.3632 8.22294C27.3632 8.56363 27.6493 8.83983 28.0022 8.83983H28.7265V9.4081L26.055 15.2105C26.0545 15.2116 26.0542 15.2127 26.0538 15.2138C26.0475 15.2277 26.042 15.2419 26.0368 15.2563C26.0348 15.2616 26.0325 15.2668 26.0308 15.2722C26.0268 15.2841 26.0237 15.2963 26.0204 15.3085C26.0182 15.3167 26.0158 15.3248 26.014 15.333C26.0122 15.3413 26.0111 15.3498 26.0095 15.3582C26.0074 15.3705 26.0051 15.3827 26.0037 15.3951C26.0032 15.4007 26.003 15.4066 26.0026 15.4123C26.0013 15.4274 26.0003 15.4424 26.0002 15.4575C26.0002 15.4587 26 15.4599 26 15.461C26 16.8897 27.5098 18.0519 29.3655 18.0519C31.2212 18.0519 32.7309 16.8897 32.7309 15.461C32.7309 15.4598 32.7308 15.4587 32.7308 15.4575C32.7307 15.4424 32.7297 15.4275 32.7284 15.4123C32.728 15.4066 32.7278 15.4007 32.7272 15.3951C32.7258 15.3827 32.7235 15.3705 32.7214 15.3582C32.72 15.3498 32.7188 15.3413 32.717 15.333C32.7152 15.3248 32.7126 15.3167 32.7105 15.3085C32.7073 15.2964 32.7042 15.2841 32.7002 15.2722C32.6984 15.2669 32.6962 15.2617 32.6942 15.2564C32.6889 15.2419 32.6835 15.2276 32.6772 15.2137C32.6767 15.2126 32.6764 15.2116 32.6759 15.2105L30.0045 9.4081V8.83983H34.861V14.2876C34.0695 14.5457 33.4978 15.2689 33.4978 16.119V20.7662H32.0919C31.7389 20.7662 31.4529 21.0424 31.4529 21.3831C31.4529 21.7238 31.7389 22 32.0919 22H38.9081C39.2611 22 39.5471 21.7238 39.5471 21.3831C39.5471 21.0424 39.2611 20.7662 38.9081 20.7662H37.5022V16.119C37.5022 15.2689 36.9305 14.5457 36.139 14.2876V8.83983H40.9955V9.4081L38.3241 15.2105C38.3236 15.2116 38.3232 15.2127 38.3228 15.2138C38.3165 15.2277 38.3111 15.2419 38.3059 15.2563C38.3039 15.2616 38.3016 15.2668 38.2998 15.2722C38.2958 15.2841 38.2927 15.2963 38.2895 15.3085C38.2873 15.3167 38.2848 15.3248 38.283 15.333C38.2812 15.3413 38.2801 15.3498 38.2786 15.3582C38.2765 15.3705 38.2742 15.3827 38.2728 15.3951C38.2722 15.4007 38.272 15.4066 38.2716 15.4123C38.2703 15.4274 38.2693 15.4424 38.2692 15.4575C38.2692 15.4587 38.2691 15.4599 38.2691 15.461C38.2691 16.8897 39.7788 18.0519 41.6345 18.0519C43.4902 18.0519 45 16.8897 45 15.461C45 15.4598 44.9998 15.4587 44.9998 15.4575C44.9997 15.4424 44.9987 15.4274 44.9974 15.4123ZM35.5 4.23377C35.8993 4.23377 36.2242 4.54739 36.2242 4.9329C36.2242 5.31841 35.8993 5.63203 35.5 5.63203C35.1007 5.63203 34.7758 5.31841 34.7758 4.9329C34.7758 4.54739 35.1007 4.23377 35.5 4.23377ZM29.3655 11.0579L31.1086 14.8442H27.6222L29.3655 11.0579ZM29.3655 16.8182C28.5729 16.8182 27.8666 16.5134 27.5145 16.0779H31.2164C30.8643 16.5134 30.158 16.8182 29.3655 16.8182ZM36.2242 20.7662H34.7758V16.119C34.7758 15.7335 35.1007 15.4199 35.5 15.4199C35.8993 15.4199 36.2242 15.7335 36.2242 16.119V20.7662ZM41.6345 11.0579L43.3777 14.8442H39.8913L41.6345 11.0579ZM41.6345 16.8182C40.842 16.8182 40.1357 16.5134 39.7835 16.0779H43.4855C43.1334 16.5134 42.4271 16.8182 41.6345 16.8182Z" fill="#784F33"/>
</g>
</svg>
