<svg width="48" height="48" viewBox="0 0 48 48" fill="none" xmlns="http://www.w3.org/2000/svg">
<g id="prison-1">
<path id="Vector" d="M45.5637 38.9805H45.5119V9.01942H45.5637C46.9071 9.01942 48 7.92651 48 6.58314C48 5.23976 46.9071 4.14685 45.5637 4.14685H2.43629C1.09291 4.14685 0 5.23976 0 6.58314C0 7.92651 1.09291 9.01942 2.43629 9.01942H2.48812V38.9805H2.43629C1.09291 38.9805 0 40.0735 0 41.4168C0 42.7602 1.09291 43.8531 2.43629 43.8531H45.5637C46.9071 43.8531 48 42.7602 48 41.4168C48 40.0735 46.9071 38.9805 45.5637 38.9805ZM43.9568 38.9805H41.365V9.01942H43.9568V38.9805ZM33.0713 38.9805V32.6128L33.5451 32.8023C34.8317 33.317 35.6631 34.545 35.6631 35.9306V37.27C35.6631 37.271 35.6632 37.2719 35.6632 37.273V38.9805H33.0713ZM28.9244 38.9805V30.9541L31.5162 31.9908V38.9805H28.9244ZM24.7775 38.9805V29.7046C25.72 29.5894 26.5994 29.2685 27.3693 28.7872V29.8189C27.3693 29.8197 27.3693 29.8205 27.3693 29.8214V38.9805H24.7775ZM20.6307 38.9805V29.8213C20.6307 29.8204 20.6307 29.8196 20.6307 29.8188V28.7871C21.4006 29.2685 22.28 29.5893 23.2225 29.7045V38.9805H20.6307ZM16.4838 38.9805V31.9908L19.0756 30.9541V38.9805H16.4838ZM12.3369 38.9805V37.27V35.9306C12.3369 34.545 13.1683 33.317 14.4549 32.8023L14.9287 32.6128V38.9805H12.3369ZM8.45754 38.9805L10.1226 33.4303C10.3217 33.5761 10.5435 33.6923 10.7819 33.7727V35.9306V37.27V38.9805H8.45754ZM10.7819 9.01942V27.4972C9.81875 27.8226 9.12311 28.7341 9.12311 29.8056V31.3502L8.19006 34.4604V9.01942H10.7819ZM14.9287 9.01942V30.9379L13.9957 31.3111V29.8056C13.9957 28.7341 13.3 27.8226 12.3369 27.4972V9.01942H14.9287ZM19.0756 9.01942V15.0705C18.1887 15.8223 17.6242 16.9434 17.6242 18.1944V23.378C17.6242 24.9124 18.1692 26.3218 19.0756 27.4231V29.2792L16.4838 30.3159V9.01942H19.0756ZM23.2225 9.01942V14.0993H21.7192C21.3423 14.0993 20.9776 14.1516 20.6307 14.2474V9.01942H23.2225ZM27.3693 9.01942V14.2474C27.0224 14.1516 26.6577 14.0993 26.2808 14.0993H24.7775V9.01942H27.3693ZM31.5162 9.01942V30.3159L28.9244 29.2792V27.4231C29.8308 26.3217 30.3758 24.9123 30.3758 23.378V18.1944C30.3758 16.9434 29.8113 15.8223 28.9244 15.0705V9.01942H31.5162ZM35.6631 9.01942V27.4972C34.7 27.8226 34.0043 28.7341 34.0043 29.8056V31.3111L33.0713 30.9379V9.01942H35.6631ZM39.8099 9.01942V34.4604L38.8769 31.3502V29.8056C38.8769 28.7341 38.1813 27.8226 37.2181 27.4972V9.01942H39.8099ZM36.4406 32.3456C35.9547 32.3456 35.5594 31.9503 35.5594 31.4643V29.8056C35.5594 29.3197 35.9547 28.9244 36.4406 28.9244C36.9265 28.9244 37.3218 29.3197 37.3218 29.8056V31.4535C37.3218 31.4557 37.3218 31.458 37.3218 31.4604V31.4643C37.3218 31.9503 36.9265 32.3456 36.4406 32.3456ZM20.6307 15.9C20.9608 15.7427 21.3298 15.6544 21.7192 15.6544H23.2225V28.1351C22.2222 27.9722 21.3248 27.5006 20.6307 26.8213V15.9ZM24.7775 15.6544H26.2808C26.6702 15.6544 27.0392 15.7427 27.3693 15.9V26.8213C26.6752 27.5006 25.7778 27.9723 24.7775 28.1351V15.6544ZM10.6782 31.4604C10.6782 31.4581 10.6782 31.4558 10.6782 31.4535V29.8056C10.6782 29.3197 11.0735 28.9244 11.5594 28.9244C12.0453 28.9244 12.4406 29.3197 12.4406 29.8056V31.4643C12.4406 31.9503 12.0453 32.3456 11.5594 32.3456C11.0735 32.3456 10.6782 31.9503 10.6782 31.4643V31.4604ZM37.2182 33.7726C37.4565 33.6922 37.6783 33.576 37.8773 33.4303L39.5425 38.9805H37.2184V33.7726H37.2182ZM1.55508 6.58314C1.55508 6.09723 1.95038 5.70193 2.43629 5.70193H45.5637C46.0496 5.70193 46.4449 6.09723 46.4449 6.58314C46.4449 7.06905 46.0496 7.46435 45.5637 7.46435H2.43629C1.95038 7.46435 1.55508 7.06905 1.55508 6.58314ZM4.0432 9.01942H6.63499V38.9805H4.0432V9.01942ZM45.5637 42.298H2.43629C1.95038 42.298 1.55508 41.9027 1.55508 41.4168C1.55508 40.9309 1.95038 40.5356 2.43629 40.5356H7.41004C7.41097 40.5356 7.4119 40.5358 7.41284 40.5358C7.41367 40.5358 7.4145 40.5356 7.41533 40.5356H40.5847C40.5855 40.5356 40.5863 40.5358 40.5872 40.5358C40.5881 40.5358 40.589 40.5356 40.59 40.5356H45.5637C46.0496 40.5356 46.4449 40.9309 46.4449 41.4168C46.4449 41.9027 46.0496 42.298 45.5637 42.298Z" fill="#784F33"/>
</g>
</svg>
