<svg width="38" height="48" viewBox="0 0 38 48" fill="none" xmlns="http://www.w3.org/2000/svg">
<g id="law-book" clip-path="url(#clip0_1_273)">
<g id="Group">
<path id="Vector" d="M34.7581 1.65875H13.972V1.60691C13.972 0.720829 13.2511 0 12.3651 0H7.38882C6.50274 0 5.78191 0.720829 5.78191 1.60691V1.65875H3.24195C1.89857 1.65875 0.805664 2.75165 0.805664 4.09503V45.5637C0.805664 46.9071 1.89857 48 3.24195 48H34.7581C36.1015 48 37.1944 46.9071 37.1944 45.5637V4.09503C37.1944 2.75165 36.1015 1.65875 34.7581 1.65875ZM7.33698 1.60691C7.33698 1.5783 7.36031 1.55508 7.38882 1.55508H12.3651C12.3936 1.55508 12.4169 1.5783 12.4169 1.60691V11.1307L10.2247 10.0346C10.1153 9.97985 9.99606 9.95248 9.87694 9.95248C9.75782 9.95248 9.6386 9.97985 9.52922 10.0346L7.33698 11.1307V1.60691ZM35.6394 45.5637C35.6394 46.0496 35.2441 46.4449 34.7581 46.4449H3.24195C2.75604 46.4449 2.36074 46.0496 2.36074 45.5637V4.09503C2.36074 3.60912 2.75604 3.21382 3.24195 3.21382H5.78191V12.3888C5.78191 12.6582 5.92145 12.9085 6.15067 13.0502C6.38009 13.192 6.66633 13.2048 6.90726 13.0842L9.87704 11.5993L12.8468 13.0842C12.9566 13.139 13.0757 13.1663 13.1945 13.1663C13.3367 13.1663 13.4784 13.1273 13.6033 13.0502C13.8325 12.9085 13.9721 12.6582 13.9721 12.3888V3.21382H34.7583C35.2442 3.21382 35.6395 3.60912 35.6395 4.09503V45.5637H35.6394Z" fill="#784F33"/>
<path id="Vector_2" d="M30.5564 29.7443C30.5558 29.737 30.5556 29.7296 30.5549 29.7225C30.5532 29.7069 30.5504 29.6915 30.5479 29.676C30.5461 29.6654 30.5446 29.6547 30.5425 29.6442C30.5403 29.6339 30.5372 29.6237 30.5346 29.6134C30.5306 29.5981 30.5269 29.5826 30.522 29.5676C30.5199 29.561 30.5172 29.5543 30.5148 29.5477C30.5084 29.5294 30.5017 29.5114 30.494 29.4939C30.4934 29.4925 30.4931 29.4912 30.4925 29.4898L27.242 22.1763V21.4601H28.1232C28.5527 21.4601 28.9007 21.1119 28.9007 20.6825C28.9007 20.2531 28.5527 19.905 28.1232 19.905H19.7776V18.844C20.7407 18.5187 21.4364 17.6072 21.4364 16.5357C21.4364 15.1923 20.3434 14.0994 19.0001 14.0994C17.6567 14.0994 16.5638 15.1923 16.5638 16.5357C16.5638 17.6072 17.2594 18.5187 18.2225 18.844V19.905H9.87696C9.44745 19.905 9.09942 20.2531 9.09942 20.6825C9.09942 21.1119 9.44745 21.4601 9.87696 21.4601H10.7582V22.1763L7.50765 29.4898C7.50702 29.4912 7.50661 29.4926 7.50609 29.494C7.49842 29.5115 7.49178 29.5294 7.48546 29.5476C7.48308 29.5542 7.48028 29.5609 7.4781 29.5676C7.47323 29.5826 7.46949 29.598 7.46555 29.6134C7.46286 29.6237 7.45985 29.6339 7.45768 29.6442C7.4555 29.6547 7.45415 29.6655 7.45229 29.676C7.44969 29.6915 7.44689 29.7069 7.44524 29.7225C7.44451 29.7296 7.4443 29.737 7.44378 29.7443C7.44223 29.7632 7.44098 29.7822 7.44088 29.8012C7.44088 29.8027 7.44067 29.8042 7.44067 29.8056C7.44067 31.6063 9.27774 33.0713 11.5357 33.0713C13.7937 33.0713 15.6307 31.6063 15.6307 29.8056C15.6307 29.8041 15.6305 29.8026 15.6305 29.8012C15.6304 29.7822 15.6292 29.7633 15.6276 29.7443C15.6271 29.737 15.6269 29.7296 15.6262 29.7225C15.6245 29.7069 15.6217 29.6915 15.6191 29.676C15.6174 29.6654 15.6159 29.6547 15.6137 29.6442C15.6116 29.6339 15.6084 29.6237 15.6059 29.6134C15.6019 29.5981 15.5982 29.5826 15.5933 29.5676C15.5911 29.561 15.5884 29.5543 15.5861 29.5477C15.5796 29.5294 15.573 29.5114 15.5653 29.4939C15.5647 29.4925 15.5644 29.4912 15.5638 29.4898L12.3132 22.1763V21.4601H18.2225V28.3267C17.2594 28.652 16.5638 29.5635 16.5638 30.635V36.4925H14.8532C14.4237 36.4925 14.0757 36.8406 14.0757 37.27C14.0757 37.6994 14.4237 38.0475 14.8532 38.0475H23.1469C23.5764 38.0475 23.9245 37.6994 23.9245 37.27C23.9245 36.8406 23.5764 36.4925 23.1469 36.4925H21.4364V30.635C21.4364 29.5635 20.7407 28.652 19.7776 28.3267V21.4601H25.6869V22.1763L22.4364 29.4898C22.4357 29.4912 22.4353 29.4926 22.4348 29.494C22.4271 29.5115 22.4205 29.5294 22.4142 29.5476C22.4118 29.5542 22.409 29.5609 22.4068 29.5676C22.402 29.5826 22.3982 29.598 22.3943 29.6134C22.3916 29.6237 22.3886 29.6339 22.3864 29.6442C22.3842 29.6547 22.3829 29.6655 22.381 29.676C22.3784 29.6915 22.3756 29.7069 22.374 29.7225C22.3732 29.7296 22.373 29.737 22.3725 29.7443C22.371 29.7632 22.3697 29.7822 22.3696 29.8012C22.3696 29.8027 22.3694 29.8042 22.3694 29.8056C22.3694 31.6063 24.2065 33.0713 26.4644 33.0713C28.7224 33.0713 30.5595 31.6063 30.5595 29.8056C30.5595 29.8041 30.5593 29.8026 30.5593 29.8012C30.5592 29.7822 30.5579 29.7632 30.5564 29.7443ZM19.0001 15.6544C19.486 15.6544 19.8813 16.0497 19.8813 16.5357C19.8813 17.0216 19.486 17.4169 19.0001 17.4169C18.5142 17.4169 18.1189 17.0216 18.1189 16.5357C18.1189 16.0497 18.5142 15.6544 19.0001 15.6544ZM11.5357 24.2558L13.6567 29.0281H9.41458L11.5357 24.2558ZM11.5357 31.5162C10.5714 31.5162 9.71191 31.132 9.28344 30.5832H13.7879C13.3595 31.132 12.5001 31.5162 11.5357 31.5162ZM19.8813 36.4925H18.1189V30.635C18.1189 30.1491 18.5142 29.7538 19.0001 29.7538C19.486 29.7538 19.8813 30.1491 19.8813 30.635V36.4925ZM26.4644 24.2558L28.5855 29.0281H24.3433L26.4644 24.2558ZM26.4644 31.5162C25.5001 31.5162 24.6406 31.132 24.2122 30.5832H28.7166C28.2882 31.132 27.4288 31.5162 26.4644 31.5162Z" fill="#784F33"/>
</g>
</g>
<defs>
<clipPath id="clip0_1_273">
<rect width="38" height="48" fill="white"/>
</clipPath>
</defs>
</svg>
