<svg width="40" height="44" viewBox="0 0 40 44" fill="none" xmlns="http://www.w3.org/2000/svg">
<g id="004-accepted" clip-path="url(#clip0_1_172)">
<g id="Accept">
<path id="Vector" d="M6.38721 40.4517H2.83883C2.65061 40.4517 2.4701 40.5264 2.33701 40.6595C2.20392 40.7926 2.12915 40.9731 2.12915 41.1613C2.12915 41.3496 2.20392 41.5301 2.33701 41.6632C2.4701 41.7962 2.65061 41.871 2.83883 41.871H6.38721C6.57543 41.871 6.75594 41.7962 6.88903 41.6632C7.02212 41.5301 7.09689 41.3496 7.09689 41.1613C7.09689 40.9731 7.02212 40.7926 6.88903 40.6595C6.75594 40.5264 6.57543 40.4517 6.38721 40.4517Z" fill="#784F33"/>
<path id="Vector_2" d="M9.22575 40.4517H8.51607C8.32786 40.4517 8.14735 40.5264 8.01426 40.6595C7.88117 40.7926 7.8064 40.9731 7.8064 41.1613C7.8064 41.3496 7.88117 41.5301 8.01426 41.6632C8.14735 41.7962 8.32786 41.871 8.51607 41.871H9.22575C9.41397 41.871 9.59448 41.7962 9.72757 41.6632C9.86066 41.5301 9.93543 41.3496 9.93543 41.1613C9.93543 40.9731 9.86066 40.7926 9.72757 40.6595C9.59448 40.5264 9.41397 40.4517 9.22575 40.4517Z" fill="#784F33"/>
<path id="Vector_3" d="M4.25802 12.7742H26.9677C27.1559 12.7742 27.3364 12.6994 27.4695 12.5663C27.6026 12.4332 27.6774 12.2527 27.6774 12.0645V9.22579C27.6774 9.03757 27.6026 8.85706 27.4695 8.72397C27.3364 8.59088 27.1559 8.51611 26.9677 8.51611H4.25802C4.0698 8.51611 3.88929 8.59088 3.7562 8.72397C3.62311 8.85706 3.54834 9.03757 3.54834 9.22579V12.0645C3.54834 12.2527 3.62311 12.4332 3.7562 12.5663C3.88929 12.6994 4.0698 12.7742 4.25802 12.7742ZM4.96769 9.93547H26.258V11.3548H4.96769V9.93547Z" fill="#784F33"/>
<path id="Vector_4" d="M4.25802 18.4517H26.9677C27.1559 18.4517 27.3364 18.3769 27.4695 18.2438C27.6026 18.1107 27.6774 17.9302 27.6774 17.742V14.9033C27.6774 14.7151 27.6026 14.5346 27.4695 14.4015C27.3364 14.2684 27.1559 14.1936 26.9677 14.1936H4.25802C4.0698 14.1936 3.88929 14.2684 3.7562 14.4015C3.62311 14.5346 3.54834 14.7151 3.54834 14.9033V17.742C3.54834 17.9302 3.62311 18.1107 3.7562 18.2438C3.88929 18.3769 4.0698 18.4517 4.25802 18.4517ZM4.96769 15.613H26.258V17.0323H4.96769V15.613Z" fill="#784F33"/>
<path id="Vector_5" d="M4.25802 24.129H26.9677C27.1559 24.129 27.3364 24.0543 27.4695 23.9212C27.6026 23.7881 27.6774 23.6076 27.6774 23.4194V20.5806C27.6774 20.3924 27.6026 20.2119 27.4695 20.0788C27.3364 19.9457 27.1559 19.871 26.9677 19.871H4.25802C4.0698 19.871 3.88929 19.9457 3.7562 20.0788C3.62311 20.2119 3.54834 20.3924 3.54834 20.5806V23.4194C3.54834 23.6076 3.62311 23.7881 3.7562 23.9212C3.88929 24.0543 4.0698 24.129 4.25802 24.129ZM4.96769 21.2903H26.258V22.7097H4.96769V21.2903Z" fill="#784F33"/>
<path id="Vector_6" d="M17.7419 25.5483H4.25802C4.0698 25.5483 3.88929 25.6231 3.7562 25.7562C3.62311 25.8893 3.54834 26.0698 3.54834 26.258C3.54834 26.4462 3.62311 26.6267 3.7562 26.7598C3.88929 26.8929 4.0698 26.9677 4.25802 26.9677H17.7419C17.9301 26.9677 18.1106 26.8929 18.2437 26.7598C18.3768 26.6267 18.4516 26.4462 18.4516 26.258C18.4516 26.0698 18.3768 25.8893 18.2437 25.7562C18.1106 25.6231 17.9301 25.5483 17.7419 25.5483Z" fill="#784F33"/>
<path id="Vector_7" d="M13.4838 27.6774H4.25802C4.0698 27.6774 3.88929 27.7521 3.7562 27.8852C3.62311 28.0183 3.54834 28.1988 3.54834 28.387C3.54834 28.5753 3.62311 28.7558 3.7562 28.8889C3.88929 29.022 4.0698 29.0967 4.25802 29.0967H13.4838C13.672 29.0967 13.8526 29.022 13.9856 28.8889C14.1187 28.7558 14.1935 28.5753 14.1935 28.387C14.1935 28.1988 14.1187 28.0183 13.9856 27.8852C13.8526 27.7521 13.672 27.6774 13.4838 27.6774Z" fill="#784F33"/>
<path id="Vector_8" d="M5.67737 31.2257C5.86559 31.2257 6.0461 31.151 6.17919 31.0179C6.31228 30.8848 6.38705 30.7043 6.38705 30.5161C6.38705 30.3279 6.31228 30.1473 6.17919 30.0143C6.0461 29.8812 5.86559 29.8064 5.67737 29.8064H4.25802C4.0698 29.8064 3.88929 29.8812 3.7562 30.0143C3.62311 30.1473 3.54834 30.3279 3.54834 30.5161C3.54834 30.7043 3.62311 30.8848 3.7562 31.0179C3.88929 31.151 4.0698 31.2257 4.25802 31.2257H5.67737Z" fill="#784F33"/>
<path id="Vector_9" d="M8.51603 31.2257C8.70425 31.2257 8.88476 31.151 9.01785 31.0179C9.15094 30.8848 9.22571 30.7043 9.22571 30.5161C9.22571 30.3279 9.15094 30.1473 9.01785 30.0143C8.88476 29.8812 8.70425 29.8064 8.51603 29.8064H7.80636C7.61814 29.8064 7.43763 29.8812 7.30454 30.0143C7.17145 30.1473 7.09668 30.3279 7.09668 30.5161C7.09668 30.7043 7.17145 30.8848 7.30454 31.0179C7.43763 31.151 7.61814 31.2257 7.80636 31.2257H8.51603Z" fill="#784F33"/>
<path id="Vector_10" d="M39.0323 33.3548C39.0296 31.2199 38.2262 29.1635 36.7808 27.5922C35.3354 26.0209 33.3531 25.049 31.2258 24.8685V6.3871C31.2258 6.2939 31.2075 6.20161 31.1718 6.11551C31.1361 6.0294 31.0839 5.95117 31.018 5.88527L25.3405 0.207847C25.2746 0.141948 25.1964 0.089675 25.1103 0.0540125C25.0242 0.0183501 24.9319 -3.3954e-06 24.8387 4.71158e-10H0.709677C0.521459 4.71158e-10 0.34095 0.0747693 0.20786 0.20786C0.0747695 0.34095 0 0.521459 0 0.709677V43.2903C0 43.4785 0.0747695 43.659 0.20786 43.7921C0.34095 43.9252 0.521459 44 0.709677 44H30.5161C30.7043 44 30.8849 43.9252 31.0179 43.7921C31.151 43.659 31.2258 43.4785 31.2258 43.2903V41.8412C33.3531 41.6607 35.3354 40.6887 36.7808 39.1174C38.2262 37.5461 39.0296 35.4898 39.0323 33.3548ZM25.5484 2.42293L28.8029 5.67742H25.5484V2.42293ZM1.41935 42.5806V1.41935H24.129V6.3871C24.129 6.57531 24.2038 6.75582 24.3369 6.88891C24.47 7.022 24.6505 7.09677 24.8387 7.09677H29.8065V24.8685C27.6785 25.047 25.6953 26.0184 24.2499 27.5902C22.8044 29.162 22.0022 31.2195 22.0022 33.3548C22.0022 35.4902 22.8044 37.5477 24.2499 39.1195C25.6953 40.6913 27.6785 41.6627 29.8065 41.8412V42.5806H1.41935ZM30.5161 40.4516C29.1125 40.4516 27.7404 40.0354 26.5734 39.2556C25.4063 38.4758 24.4967 37.3674 23.9596 36.0707C23.4224 34.7739 23.2819 33.347 23.5557 31.9703C23.8295 30.5937 24.5055 29.3292 25.498 28.3367C26.4905 27.3442 27.755 26.6683 29.1316 26.3944C30.5083 26.1206 31.9352 26.2611 33.2319 26.7983C34.5287 27.3354 35.6371 28.245 36.4169 29.4121C37.1967 30.5791 37.6129 31.9512 37.6129 33.3548C37.6108 35.2364 36.8624 37.0402 35.5319 38.3707C34.2015 39.7011 32.3977 40.4495 30.5161 40.4516Z" fill="#784F33"/>
<path id="Vector_11" d="M35.9857 30.724C35.9198 30.6581 35.8416 30.6058 35.7555 30.5701C35.6694 30.5345 35.5771 30.5161 35.4839 30.5161C35.3907 30.5161 35.2984 30.5345 35.2123 30.5701C35.1262 30.6058 35.0479 30.6581 34.982 30.724L30.4061 35.2999L27.3329 33.456C27.253 33.408 27.1644 33.3763 27.0722 33.3626C26.98 33.3489 26.886 33.3534 26.7956 33.376C26.7052 33.3986 26.6201 33.4388 26.5452 33.4943C26.4704 33.5498 26.4071 33.6195 26.3592 33.6994C26.3112 33.7793 26.2795 33.8679 26.2658 33.9601C26.2521 34.0523 26.2566 34.1462 26.2792 34.2367C26.3018 34.3271 26.342 34.4122 26.3975 34.487C26.453 34.5619 26.5227 34.6251 26.6026 34.6731L30.151 36.8021C30.2867 36.8836 30.4457 36.9174 30.6028 36.8981C30.7599 36.8788 30.906 36.8075 31.018 36.6957L35.9857 31.7279C36.0516 31.662 36.104 31.5838 36.1396 31.4976C36.1753 31.4115 36.1937 31.3192 36.1937 31.226C36.1937 31.1327 36.1753 31.0404 36.1396 30.9543C36.104 30.8681 36.0516 30.7899 35.9857 30.724Z" fill="#784F33"/>
</g>
</g>
<defs>
<clipPath id="clip0_1_172">
<rect width="39.0323" height="44" fill="white"/>
</clipPath>
</defs>
</svg>
