<svg width="48" height="48" viewBox="0 0 48 48" fill="none" xmlns="http://www.w3.org/2000/svg">
<g id="agreement">
<g id="Group">
<path id="Vector" d="M38.9287 0H15.7063C15.6974 0 15.6887 0.00103672 15.6797 0.00134773C15.671 0.00165875 15.6625 0.00207343 15.6538 0.00259179C15.6207 0.0047689 15.5879 0.00850108 15.556 0.0147214C15.5553 0.0148251 15.5548 0.0148251 15.5542 0.0150324C15.5197 0.0218747 15.4863 0.0315162 15.4535 0.0427127C15.4476 0.0447862 15.4417 0.0469633 15.4359 0.0492441C15.4051 0.0606479 15.3751 0.0736069 15.3462 0.0886393C15.3444 0.089676 15.3424 0.0904017 15.3405 0.0914384C15.3103 0.107611 15.2815 0.126065 15.2539 0.14597C15.2475 0.150428 15.2414 0.155197 15.2352 0.159862C15.2077 0.180803 15.1812 0.202989 15.1568 0.227248C15.1567 0.227352 15.1565 0.227456 15.1564 0.227559L6.86267 8.5213C6.86257 8.5214 6.86247 8.5215 6.86236 8.52161C6.838 8.54607 6.81581 8.57261 6.79487 8.60009C6.79021 8.60631 6.78554 8.61242 6.78098 8.61864C6.76107 8.64632 6.74262 8.67504 6.72645 8.70521C6.72541 8.70728 6.72448 8.70936 6.72344 8.71143C6.70851 8.74004 6.69566 8.7698 6.68425 8.80038C6.68197 8.8065 6.67969 8.81251 6.67752 8.81873C6.66632 8.85118 6.65678 8.88435 6.64994 8.91867C6.64973 8.91991 6.64963 8.92126 6.64932 8.92251C6.6433 8.95371 6.63968 8.98564 6.63739 9.01799C6.63677 9.02711 6.63636 9.03613 6.63605 9.04525C6.63605 9.05406 6.63501 9.06257 6.63501 9.07127V45.5637C6.63501 46.9071 7.72792 48 9.07129 48H38.9287C40.2721 48 41.365 46.9071 41.365 45.5637V2.43629C41.365 1.09291 40.2721 0 38.9287 0ZM14.9287 2.65462V7.41253C14.9287 7.89844 14.5334 8.29374 14.0475 8.29374H9.28963L14.9287 2.65462ZM39.81 45.5637C39.81 46.0496 39.4147 46.4449 38.9287 46.4449H9.07129C8.58539 46.4449 8.19009 46.0496 8.19009 45.5637V9.84881H14.0475C15.3909 9.84881 16.4838 8.75591 16.4838 7.41253V1.55508H38.9287C39.4147 1.55508 39.81 1.95038 39.81 2.43629V45.5637Z" fill="#784F33"/>
<path id="Vector_2" d="M14.0476 13.1663H33.9525C34.3819 13.1663 34.7301 12.8183 34.7301 12.3887C34.7301 11.9592 34.3819 11.6112 33.9525 11.6112H14.0476C13.6181 11.6112 13.27 11.9592 13.27 12.3887C13.27 12.8183 13.6181 13.1663 14.0476 13.1663Z" fill="#784F33"/>
<path id="Vector_3" d="M14.0476 17.3131H33.9525C34.3819 17.3131 34.7301 16.9651 34.7301 16.5356C34.7301 16.1061 34.3819 15.7581 33.9525 15.7581H14.0476C13.6181 15.7581 13.27 16.1061 13.27 16.5356C13.27 16.9651 13.6181 17.3131 14.0476 17.3131Z" fill="#784F33"/>
<path id="Vector_4" d="M14.0476 21.4601H33.9525C34.3819 21.4601 34.7301 21.1121 34.7301 20.6826C34.7301 20.2531 34.3819 19.905 33.9525 19.905H14.0476C13.6181 19.905 13.27 20.2531 13.27 20.6826C13.27 21.1121 13.6181 21.4601 14.0476 21.4601Z" fill="#784F33"/>
<path id="Vector_5" d="M14.0476 25.607H33.9525C34.3819 25.607 34.7301 25.2589 34.7301 24.8294C34.7301 24.3999 34.3819 24.0519 33.9525 24.0519H14.0476C13.6181 24.0519 13.27 24.3999 13.27 24.8294C13.27 25.2589 13.6181 25.607 14.0476 25.607Z" fill="#784F33"/>
<path id="Vector_6" d="M14.0476 29.7538H33.9525C34.3819 29.7538 34.7301 29.4058 34.7301 28.9763C34.7301 28.5468 34.3819 28.1987 33.9525 28.1987H14.0476C13.6181 28.1987 13.27 28.5468 13.27 28.9763C13.27 29.4058 13.6181 29.7538 14.0476 29.7538Z" fill="#784F33"/>
<path id="Vector_7" d="M24 34.0043H14.0476C13.6181 34.0043 13.27 34.3523 13.27 34.7818C13.27 35.2113 13.6181 35.5593 14.0476 35.5593H24C24.4295 35.5593 24.7776 35.2113 24.7776 34.7818C24.7776 34.3523 24.4295 34.0043 24 34.0043Z" fill="#784F33"/>
<path id="Vector_8" d="M24 38.1511H14.0476C13.6181 38.1511 13.27 38.4991 13.27 38.9287C13.27 39.3582 13.6181 39.7062 14.0476 39.7062H24C24.4295 39.7062 24.7776 39.3582 24.7776 38.9287C24.7776 38.4991 24.4295 38.1511 24 38.1511Z" fill="#784F33"/>
<path id="Vector_9" d="M31.0496 35.6631C30.3923 35.6631 29.8574 36.1979 29.8574 36.8553C29.8574 37.5127 30.3923 38.0475 31.0496 38.0475C31.707 38.0475 32.2419 37.5127 32.2419 36.8553C32.2419 36.1979 31.707 35.6631 31.0496 35.6631Z" fill="#784F33"/>
<path id="Vector_10" d="M31.0498 32.3456C28.5631 32.3456 26.54 34.3686 26.54 36.8553C26.54 39.342 28.5631 41.365 31.0498 41.365C33.5364 41.365 35.5595 39.342 35.5595 36.8553C35.5595 34.3686 33.5364 32.3456 31.0498 32.3456ZM31.0498 39.8099C29.4206 39.8099 28.0951 38.4845 28.0951 36.8553C28.0951 35.2261 29.4206 33.9007 31.0498 33.9007C32.679 33.9007 34.0044 35.2261 34.0044 36.8553C34.0044 38.4845 32.679 39.8099 31.0498 39.8099Z" fill="#784F33"/>
</g>
</g>
</svg>
