<svg width="48" height="48" viewBox="0 0 48 48" fill="none" xmlns="http://www.w3.org/2000/svg">
<g id="handcuffs" clip-path="url(#clip0_1_231)">
<g id="Group">
<path id="Vector" d="M3.31714 36.3031C3.31714 40.3904 6.64244 43.7157 10.7297 43.7157C14.817 43.7157 18.1423 40.3904 18.1423 36.3031C18.1423 32.2158 14.817 28.8905 10.7297 28.8905C6.64244 28.8905 3.31714 32.2159 3.31714 36.3031ZM16.5872 36.3031C16.5872 39.5329 13.9595 42.1606 10.7297 42.1606C7.49991 42.1606 4.87223 39.5329 4.87223 36.3031C4.87223 33.0733 7.49991 30.4456 10.7297 30.4456C13.9595 30.4456 16.5872 33.0733 16.5872 36.3031Z" fill="#784F33"/>
<path id="Vector_2" d="M37.27 28.8905C33.1827 28.8905 29.8574 32.2158 29.8574 36.3031C29.8574 40.3904 33.1827 43.7157 37.27 43.7157C41.3573 43.7157 44.6826 40.3904 44.6826 36.3031C44.6826 32.2158 41.3573 28.8905 37.27 28.8905ZM37.27 42.1606C34.0402 42.1606 31.4125 39.5329 31.4125 36.3031C31.4125 33.0733 34.0402 30.4456 37.27 30.4456C40.4998 30.4456 43.1275 33.0733 43.1275 36.3031C43.1275 39.5329 40.4998 42.1606 37.27 42.1606Z" fill="#784F33"/>
<path id="Vector_3" d="M41.4156 26.4158C41.3903 26.4052 41.3648 26.384 41.3648 26.3638V23.8623C41.3648 22.7201 40.5745 21.7593 39.5121 21.4971C39.6369 21.2045 39.7061 20.8826 39.7061 20.5448V18.886C39.7061 18.048 39.2807 17.3075 38.6345 16.8689C38.6636 16.8303 38.6938 16.7928 38.7209 16.7524C39.0824 16.2112 39.2116 15.5618 39.0847 14.9235L38.761 13.2966C38.634 12.6584 38.2662 12.1077 37.7251 11.7462C37.5184 11.608 37.2957 11.5041 37.0639 11.4351C37.2776 10.8578 37.2688 10.2313 37.0319 9.65949L36.3972 8.127C36.1481 7.52581 35.6799 7.05752 35.0786 6.80849C34.7378 6.66729 34.3774 6.60903 34.0196 6.628C34.0214 6.56901 34.0218 6.50971 34.0193 6.4501C33.9922 5.79997 33.7135 5.19919 33.2345 4.75868L32.0138 3.6357C31.5348 3.19499 30.9127 2.96826 30.2627 2.99448C30.0041 3.00527 29.7536 3.05648 29.5175 3.14367C29.28 2.47519 28.755 1.91494 28.0358 1.66011L26.4721 1.1064C25.5888 0.793722 24.6432 1.02336 23.9996 1.6203C23.356 1.02346 22.4104 0.79393 21.5272 1.1064L19.9635 1.66022C19.2442 1.91494 18.7192 2.47519 18.4817 3.14367C18.2457 3.05648 17.9952 3.00527 17.7365 2.99448C17.0861 2.96774 16.4644 3.19509 15.9855 3.6357L14.7647 4.75868C14.2858 5.19919 14.0071 5.79997 13.9799 6.4501C13.9774 6.50971 13.9779 6.56891 13.9796 6.628C13.6218 6.60913 13.2615 6.6674 12.9206 6.80849C12.3194 7.05741 11.8511 7.52581 11.6021 8.127L10.9673 9.65949C10.7304 10.2313 10.7216 10.8577 10.9354 11.4351C10.7037 11.504 10.481 11.608 10.2741 11.7462C9.73308 12.1077 9.36515 12.6584 9.23825 13.2966L8.91459 14.9235C8.78759 15.5617 8.91677 16.2112 9.27837 16.7524C9.30543 16.7929 9.3356 16.8304 9.36473 16.8689C8.71865 17.3074 8.29317 18.048 8.29317 18.886V20.5448C8.29317 20.8826 8.36243 21.2045 8.48715 21.4971C7.42471 21.7593 6.63441 22.7201 6.63441 23.8623V26.3635C6.63441 26.3848 6.60798 26.4056 6.58351 26.4159C2.40841 28.1678 -0.230995 32.3822 0.0159535 36.903C0.314012 42.3599 4.82678 46.8057 10.2898 47.0243C10.4387 47.0303 10.5868 47.0333 10.7348 47.0333C13.5217 47.0333 16.1449 45.9803 18.1628 44.0416C20.2889 41.9989 21.4598 39.2507 21.4598 36.303C21.4598 31.9749 18.8752 28.0939 14.8756 26.4158C14.8503 26.4052 14.8248 26.384 14.8248 26.3638V23.8623C14.8248 22.7201 14.0345 21.7593 12.972 21.4971C13.0968 21.2045 13.166 20.8826 13.166 20.5448V18.886C13.166 18.3339 12.981 17.8242 12.6702 17.4151C13.2042 17.0535 13.5678 16.5072 13.6938 15.8739L14.0174 14.2472C14.1066 13.7984 14.0687 13.3441 13.913 12.9258C14.5918 12.723 15.1776 12.2282 15.4692 11.5243L16.104 9.99176C16.2384 9.66727 16.2977 9.32504 16.2871 8.98417C16.2957 8.98458 16.3042 8.98552 16.3128 8.98583C16.3475 8.98728 16.3821 8.988 16.4168 8.988C17.0289 8.9879 17.6104 8.76158 18.0637 8.34461L19.2844 7.22163C19.5825 6.94742 19.8029 6.61121 19.9335 6.23954C20.2018 6.33886 20.4877 6.39318 20.7793 6.39318C21.0485 6.39318 21.3223 6.34809 21.5902 6.25322L23.1539 5.69951C23.4783 5.58464 23.763 5.40726 23.9999 5.18623C24.2368 5.40726 24.5215 5.58464 24.8459 5.69951L26.4095 6.25333C26.6774 6.34819 26.9511 6.39318 27.2204 6.39318C27.512 6.39318 27.7978 6.33896 28.0661 6.23954C28.1968 6.6111 28.4172 6.94742 28.7152 7.22163L29.936 8.34461C30.3893 8.76169 30.9706 8.988 31.5829 8.988C31.6174 8.988 31.6522 8.98717 31.6869 8.98583C31.6955 8.98552 31.704 8.98458 31.7126 8.98417C31.7019 9.32504 31.7612 9.66727 31.8957 9.99176L32.5305 11.5243C32.8221 12.2283 33.4078 12.7231 34.0866 12.9259C33.9308 13.3442 33.8929 13.7984 33.9822 14.2472L34.3058 15.874C34.4317 16.5073 34.7953 17.0536 35.3293 17.4152C35.0185 17.8243 34.8336 18.3339 34.8336 18.8861V20.5449C34.8336 20.8827 34.9028 21.2046 35.0275 21.4972C33.9651 21.7594 33.1748 22.7202 33.1748 23.8624V26.3636C33.1748 26.3849 33.1484 26.4057 33.1239 26.416C28.9487 28.1678 26.3093 32.3823 26.5561 36.9031C26.8542 42.36 31.367 46.8058 36.83 47.0244C36.9789 47.0305 37.127 47.0334 37.275 47.0334C40.0619 47.0334 42.6851 45.9804 44.703 44.0417C46.8291 41.999 48 39.2508 48 36.3031C48 31.9749 45.4154 28.094 41.4156 26.4158ZM36.3887 20.5448V18.886C36.3887 18.4001 36.784 18.0048 37.2699 18.0048C37.7558 18.0048 38.1511 18.4001 38.1511 18.886V20.5448C38.1511 21.0307 37.7558 21.426 37.2699 21.426C36.784 21.426 36.3887 21.0307 36.3887 20.5448ZM37.5595 15.2268C37.6055 15.4578 37.5587 15.6926 37.428 15.8883C37.2972 16.0841 37.0981 16.2171 36.8671 16.263C36.6365 16.3087 36.4014 16.2622 36.2058 16.1314C36.01 16.0005 35.8769 15.8014 35.831 15.5706L35.5074 13.9437C35.4615 13.7129 35.5083 13.478 35.639 13.2822C35.7697 13.0865 35.9689 12.9535 36.1998 12.9076C36.1998 12.9076 36.1998 12.9076 36.1999 12.9076C36.2578 12.8961 36.3159 12.8903 36.3736 12.8903C36.546 12.8903 36.7147 12.9411 36.8613 13.0392C37.057 13.1699 37.19 13.3692 37.236 13.6L37.5595 15.2268ZM10.4399 15.2268L10.7636 13.6C10.8095 13.3691 10.9426 13.1699 11.1383 13.0392C11.2849 12.9412 11.4535 12.8903 11.6259 12.8903C11.6837 12.8903 11.7418 12.8961 11.7997 12.9076C12.0306 12.9535 12.2297 13.0866 12.3605 13.2822C12.4912 13.478 12.5379 13.7129 12.492 13.9438L12.1685 15.5706C12.1225 15.8015 11.9894 16.0005 11.7937 16.1314C11.5981 16.2622 11.3631 16.3086 11.1322 16.263C10.9014 16.2171 10.7022 16.084 10.5715 15.8883C10.4408 15.6927 10.394 15.4578 10.4399 15.2268ZM11.6109 20.5448C11.6109 21.0307 11.2156 21.426 10.7297 21.426C10.2438 21.426 9.84847 21.0307 9.84847 20.5448V18.886C9.84847 18.4001 10.2438 18.0048 10.7297 18.0048C11.2156 18.0048 11.6109 18.4001 11.6109 18.886V20.5448ZM13.2697 23.8623V26.3638C13.2697 27.0105 13.6638 27.5937 14.2738 27.8498C17.6945 29.2849 19.9047 32.6031 19.9047 36.303C19.9047 38.8234 18.9034 41.1735 17.0854 42.9202C15.2685 44.6658 12.8776 45.5698 10.352 45.4705C5.68166 45.2836 1.82359 41.483 1.56876 36.8182C1.35758 32.9521 3.61474 29.3481 7.18554 27.8498C7.79555 27.5937 8.18971 27.0102 8.18971 26.3635V23.8623C8.18971 23.3764 8.58501 22.9811 9.07093 22.9811H12.3884C12.8744 22.9811 13.2697 23.3765 13.2697 23.8623ZM14.6672 9.39658L14.0324 10.9291C13.8465 11.3779 13.3301 11.5917 12.8811 11.4061C12.4322 11.2201 12.2182 10.7036 12.4042 10.2547L13.039 8.72219C13.1291 8.50468 13.2984 8.33538 13.5159 8.24519C13.6245 8.20009 13.7388 8.1777 13.853 8.1777C13.9673 8.1777 14.0815 8.2002 14.1903 8.24519C14.4078 8.33528 14.5771 8.50468 14.6672 8.72219C14.7573 8.93959 14.7573 9.17907 14.6672 9.39658ZM18.2316 6.07729L17.0109 7.20027C16.8378 7.35972 16.6126 7.44339 16.3776 7.43209C16.1423 7.42234 15.9251 7.32157 15.7657 7.14823C15.6063 6.9751 15.524 6.75013 15.5339 6.515C15.5436 6.27976 15.6445 6.06257 15.8177 5.90323L17.0385 4.78024C17.2025 4.6294 17.4127 4.5476 17.6342 4.5476C17.6467 4.5476 17.6593 4.54781 17.6718 4.54843C17.907 4.55818 18.1242 4.65895 18.2836 4.83218V4.83229C18.4429 5.00542 18.5252 5.23039 18.5154 5.46552C18.5058 5.70065 18.4049 5.91784 18.2316 6.07729ZM22.6347 4.23379L21.0711 4.7874C20.6129 4.94954 20.1084 4.70892 19.9462 4.25089C19.7839 3.79287 20.0247 3.28829 20.4827 3.12604L22.0464 2.57233C22.1433 2.53801 22.2423 2.52174 22.3397 2.52174C22.7026 2.52174 23.0434 2.74774 23.1712 3.10883V3.10894C23.3334 3.56696 23.0927 4.07154 22.6347 4.23379ZM26.9284 4.7875L25.3648 4.23379C24.9068 4.07154 24.6661 3.56686 24.8282 3.10883C24.9905 2.65081 25.4954 2.41019 25.9531 2.57233L27.5167 3.12594C27.9747 3.28819 28.2154 3.79287 28.0532 4.25089C27.8911 4.70892 27.3867 4.94954 26.9284 4.7875ZM31.622 7.43209C31.3881 7.44276 31.1619 7.35962 30.9887 7.20027L29.7678 6.07729C29.5946 5.91795 29.4937 5.70065 29.484 5.46552C29.4741 5.23029 29.5564 5.00542 29.7158 4.83229V4.83218C29.8751 4.65895 30.0924 4.55807 30.3275 4.54843C30.3401 4.54781 30.3526 4.5476 30.3652 4.5476C30.5866 4.5476 30.797 4.6294 30.9609 4.78024L32.1816 5.90323C32.3549 6.06257 32.4557 6.27987 32.4655 6.515C32.4753 6.75023 32.393 6.9751 32.2336 7.14833C32.0744 7.32147 31.8571 7.42234 31.622 7.43209ZM33.3324 9.39658C33.2423 9.17907 33.2423 8.93959 33.3324 8.72208C33.4225 8.50458 33.5918 8.33528 33.8093 8.24509C33.918 8.19999 34.0323 8.1776 34.1465 8.1776C34.2608 8.1776 34.375 8.20009 34.4837 8.24509C34.7012 8.33518 34.8705 8.50458 34.9606 8.72208L35.5954 10.2546C35.7813 10.7035 35.5674 11.2201 35.1185 11.4059C34.6692 11.5921 34.153 11.3779 33.9671 10.929L33.3324 9.39658ZM43.6255 42.9202C41.8086 44.6658 39.4173 45.5698 36.8921 45.4705C32.2217 45.2836 28.3637 41.483 28.1088 36.8182C27.8977 32.9521 30.1548 29.3481 33.7256 27.8498C34.3356 27.5937 34.7298 27.0102 34.7298 26.3635V23.8623C34.7298 23.3764 35.1251 22.9811 35.611 22.9811H38.9285C39.4144 22.9811 39.8097 23.3764 39.8097 23.8623V26.3638C39.8097 27.0105 40.2039 27.5937 40.8139 27.8498C44.2346 29.2849 46.4448 32.6031 46.4448 36.303C46.4449 38.8234 45.4436 41.1735 43.6255 42.9202Z" fill="#784F33"/>
<path id="Vector_4" d="M10.7297 27.128C11.1591 27.128 11.5072 26.78 11.5072 26.3505V25.5211C11.5072 25.0916 11.1591 24.7435 10.7297 24.7435C10.3003 24.7435 9.95215 25.0916 9.95215 25.5211V26.3505C9.95215 26.78 10.3003 27.128 10.7297 27.128Z" fill="#784F33"/>
<path id="Vector_5" d="M37.27 27.128C37.6994 27.128 38.0475 26.78 38.0475 26.3505V25.5211C38.0475 25.0916 37.6994 24.7435 37.27 24.7435C36.8406 24.7435 36.4924 25.0916 36.4924 25.5211V26.3505C36.4924 26.78 36.8406 27.128 37.27 27.128Z" fill="#784F33"/>
</g>
</g>
<defs>
<clipPath id="clip0_1_231">
<rect width="48" height="48" fill="white"/>
</clipPath>
</defs>
</svg>
