<svg width="48" height="46" viewBox="0 0 48 46" fill="none" xmlns="http://www.w3.org/2000/svg">
<g id="022-factory" clip-path="url(#clip0_1_286)">
<path id="Vector" d="M47.2272 23.7287H46.2665L44.1132 3.80169C44.0684 3.41111 43.7332 3.11884 43.3403 3.12832H37.3837C36.9908 3.11884 36.6556 3.41111 36.6108 3.80169L34.4575 23.7287H33.9102V20.0813C33.9181 19.8152 33.7864 19.5647 33.5629 19.4205C33.3404 19.2789 33.0595 19.2656 32.8246 19.3852L25.1647 23.2033V20.0813C25.1621 19.8046 25.0137 19.5495 24.7745 19.4106C24.6815 19.3571 24.5783 19.3225 24.4716 19.31C25.3898 17.5013 25.867 15.501 25.8639 13.4729C25.8639 6.34029 20.0606 0.53772 12.9284 0.53772C5.79612 0.53772 0 6.34067 0 13.4729C0.00417534 18.5406 2.96525 23.1399 7.57671 25.2417V43.8097C7.57671 44.239 7.91074 44.6205 8.34004 44.6205H47.2272C47.6618 44.6042 48.0046 44.2447 48 43.8097V24.5504C48 24.1211 47.6565 23.7287 47.2272 23.7287ZM43.3745 11.4851H37.3499L37.6099 9.05578H43.1153L43.3745 11.4851ZM42.6423 4.68307L42.9471 7.50104H37.7777L38.0821 4.68307H42.6423ZM37.1813 13.0398H43.5423L44.7023 23.7287H36.021L37.1813 13.0398ZM1.54753 13.4729C1.54753 7.18789 6.64258 2.09284 12.9276 2.09284C19.2126 2.09284 24.3077 7.18789 24.3077 13.4729C24.3077 19.7583 19.2126 24.853 12.9276 24.853C6.64523 24.8461 1.55436 19.7553 1.54753 13.4729ZM46.4453 43.0658H9.13145V25.8349C10.3624 26.2187 11.645 26.4119 12.9344 26.4081C16.7169 26.4092 20.31 24.752 22.7647 21.8741L23.61 21.4045V24.4582C23.6073 24.7262 23.7444 24.9763 23.9713 25.119C24.1911 25.2606 24.4701 25.2739 24.7028 25.154L32.3554 21.3362V24.5504C32.3554 24.9797 32.7452 25.2834 33.1745 25.2834H46.4453V43.0658Z" fill="#784F33"/>
<path id="Vector_2" d="M20.209 33.8345C20.209 33.4052 19.8609 33.0571 19.4316 33.0571H13.2127C12.7834 33.0571 12.4353 33.4052 12.4353 33.8345V39.1789C12.4353 39.6082 12.7834 39.9563 13.2127 39.9563H19.4316C19.8609 39.9563 20.209 39.6082 20.209 39.1789V33.8345ZM18.6543 38.4016H13.99V34.6119H18.6543V38.4016Z" fill="#784F33"/>
<path id="Vector_3" d="M31.6756 33.8345C31.6756 33.4052 31.3275 33.0571 30.8982 33.0571H24.6792C24.2499 33.0571 23.9019 33.4052 23.9019 33.8345V39.1789C23.9019 39.6082 24.2499 39.9563 24.6792 39.9563H30.8982C31.3275 39.9563 31.6756 39.6082 31.6756 39.1789V33.8345ZM30.1208 38.4016H25.4566V34.6119H30.1208V38.4016Z" fill="#784F33"/>
<path id="Vector_4" d="M43.2386 33.8345C43.2386 33.4052 42.8905 33.0571 42.4612 33.0571H36.2422C35.8129 33.0571 35.4648 33.4052 35.4648 33.8345V39.1789C35.4648 39.6082 35.8129 39.9563 36.2422 39.9563H42.4612C42.8905 39.9563 43.2386 39.6082 43.2386 39.1789V33.8345ZM37.0196 34.6119H41.5866V38.4016H37.0196V34.6119Z" fill="#784F33"/>
<path id="Vector_5" d="M19.3983 29.6561H13.2241C12.7948 29.6561 12.4468 30.0042 12.4468 30.4335C12.4468 30.8628 12.7948 31.2109 13.2241 31.2109H19.3983C19.8276 31.2109 20.1757 30.8628 20.1757 30.4335C20.1757 30.0042 19.8276 29.6561 19.3983 29.6561Z" fill="#784F33"/>
<path id="Vector_6" d="M30.8707 29.6561H24.6966C24.2673 29.6561 23.9192 30.0042 23.9192 30.4335C23.9192 30.8628 24.2673 31.2109 24.6966 31.2109H30.8707C31.3 31.2109 31.6481 30.8628 31.6481 30.4335C31.6481 30.0042 31.3 29.6561 30.8707 29.6561Z" fill="#784F33"/>
<path id="Vector_7" d="M36.2154 31.2109H42.3895C42.8188 31.2109 43.1669 30.8628 43.1669 30.4335C43.1669 30.0042 42.8188 29.6561 42.3895 29.6561H36.2154C35.7861 29.6561 35.438 30.0042 35.438 30.4335C35.438 30.8628 35.7861 31.2109 36.2154 31.2109Z" fill="#784F33"/>
<path id="Vector_8" d="M21.9974 15.9123C21.997 15.9066 21.9968 15.9007 21.9963 15.8951C21.9949 15.8827 21.9926 15.8705 21.9905 15.8582C21.989 15.8498 21.9878 15.8413 21.986 15.833C21.9842 15.8248 21.9817 15.8167 21.9796 15.8085C21.9763 15.7964 21.9732 15.7841 21.9692 15.7722C21.9675 15.7669 21.9652 15.7617 21.9633 15.7564C21.958 15.7419 21.9525 15.7276 21.9462 15.7137C21.9457 15.7126 21.9455 15.7116 21.945 15.7105L19.2735 9.9081V9.33983H19.9978C20.3507 9.33983 20.6368 9.06363 20.6368 8.72294C20.6368 8.38226 20.3507 8.10606 19.9978 8.10606H13.139V7.2643C13.9305 7.0062 14.5022 6.28305 14.5022 5.4329C14.5022 4.36709 13.604 3.5 12.5 3.5C11.396 3.5 10.4978 4.36709 10.4978 5.4329C10.4978 6.28305 11.0695 7.0062 11.861 7.2643V8.10606H5.00224C4.64925 8.10606 4.36323 8.38226 4.36323 8.72294C4.36323 9.06363 4.64925 9.33983 5.00224 9.33983H5.72646V9.9081L3.05504 15.7105C3.05453 15.7116 3.05419 15.7127 3.05376 15.7138C3.04746 15.7277 3.042 15.7419 3.03681 15.7563C3.03485 15.7616 3.03255 15.7668 3.03076 15.7722C3.02675 15.7841 3.02369 15.7963 3.02045 15.8085C3.01823 15.8167 3.01576 15.8248 3.01397 15.833C3.01218 15.8413 3.01108 15.8498 3.00954 15.8582C3.00741 15.8705 3.00511 15.8827 3.00375 15.8951C3.00315 15.9007 3.00298 15.9066 3.00256 15.9123C3.00128 15.9274 3.00026 15.9424 3.00017 15.9575C3.00017 15.9587 3 15.9599 3 15.961C3 17.3897 4.50978 18.5519 6.36547 18.5519C8.22117 18.5519 9.73094 17.3897 9.73094 15.961C9.73094 15.9598 9.73077 15.9587 9.73077 15.9575C9.73069 15.9424 9.72966 15.9275 9.72839 15.9123C9.72796 15.9066 9.72779 15.9007 9.72719 15.8951C9.72583 15.8827 9.72353 15.8705 9.7214 15.8582C9.71995 15.8498 9.71876 15.8413 9.71697 15.833C9.71518 15.8248 9.71262 15.8167 9.71049 15.8085C9.70725 15.7964 9.70419 15.7841 9.70018 15.7722C9.6984 15.7669 9.69618 15.7617 9.69422 15.7564C9.68894 15.7419 9.68348 15.7276 9.67718 15.7137C9.67667 15.7126 9.67641 15.7116 9.6759 15.7105L7.00448 9.9081V9.33983H11.861V14.7876C11.0695 15.0457 10.4978 15.7689 10.4978 16.619V21.2662H9.09193C8.73894 21.2662 8.45291 21.5424 8.45291 21.8831C8.45291 22.2238 8.73894 22.5 9.09193 22.5H15.9081C16.2611 22.5 16.5471 22.2238 16.5471 21.8831C16.5471 21.5424 16.2611 21.2662 15.9081 21.2662H14.5022V16.619C14.5022 15.7689 13.9305 15.0457 13.139 14.7876V9.33983H17.9955V9.9081L15.3241 15.7105C15.3236 15.7116 15.3232 15.7127 15.3228 15.7138C15.3165 15.7277 15.3111 15.7419 15.3059 15.7563C15.3039 15.7616 15.3016 15.7668 15.2998 15.7722C15.2958 15.7841 15.2927 15.7963 15.2895 15.8085C15.2873 15.8167 15.2848 15.8248 15.283 15.833C15.2812 15.8413 15.2801 15.8498 15.2786 15.8582C15.2765 15.8705 15.2742 15.8827 15.2728 15.8951C15.2722 15.9007 15.272 15.9066 15.2716 15.9123C15.2703 15.9274 15.2693 15.9424 15.2692 15.9575C15.2692 15.9587 15.2691 15.9599 15.2691 15.961C15.2691 17.3897 16.7788 18.5519 18.6345 18.5519C20.4902 18.5519 22 17.3897 22 15.961C22 15.9598 21.9998 15.9587 21.9998 15.9575C21.9997 15.9424 21.9987 15.9274 21.9974 15.9123ZM12.5 4.73377C12.8993 4.73377 13.2242 5.04739 13.2242 5.4329C13.2242 5.81841 12.8993 6.13203 12.5 6.13203C12.1007 6.13203 11.7758 5.81841 11.7758 5.4329C11.7758 5.04739 12.1007 4.73377 12.5 4.73377ZM6.36547 11.5579L8.10861 15.3442H4.62224L6.36547 11.5579ZM6.36547 17.3182C5.57292 17.3182 4.8666 17.0134 4.51446 16.5779H8.21639C7.86434 17.0134 7.15802 17.3182 6.36547 17.3182ZM13.2242 21.2662H11.7758V16.619C11.7758 16.2335 12.1007 15.9199 12.5 15.9199C12.8993 15.9199 13.2242 16.2335 13.2242 16.619V21.2662ZM18.6345 11.5579L20.3777 15.3442H16.8913L18.6345 11.5579ZM18.6345 17.3182C17.842 17.3182 17.1357 17.0134 16.7835 16.5779H20.4855C20.1334 17.0134 19.4271 17.3182 18.6345 17.3182Z" fill="#784F33"/>
</g>
<defs>
<clipPath id="clip0_1_286">
<rect width="48.0001" height="45" fill="white" transform="translate(0 0.5)"/>
</clipPath>
</defs>
</svg>
