<svg width="49" height="48" viewBox="0 0 49 48" fill="none" xmlns="http://www.w3.org/2000/svg">
<g id="057-report">
<path id="Vector" d="M32.5236 0H15.9752C15.5231 0 15.143 0.312764 15.143 0.761099V2.63848H5.63218C5.18014 2.63848 4.80884 2.95758 4.80884 3.40592V47.1374C4.80884 47.5858 5.18014 48 5.63218 48H42.8662C43.3182 48 43.6895 47.5858 43.6895 47.1374V3.40592C43.6895 2.95758 43.3182 2.63848 42.8662 2.63848H33.3557V0.761099C33.3557 0.312764 32.9756 0 32.5236 0ZM16.7801 1.62368H31.7186V5.27696H16.7801V1.62368ZM42.0528 4.26216V46.3763H6.44594V4.26216H15.143V6.05034C15.1462 6.50899 15.5131 6.88359 15.9752 6.90063H32.5236L32.5304 6.88161C32.9876 6.87289 33.3541 6.50383 33.3557 6.05034V4.26216H42.0528Z" fill="#784F33"/>
<path id="Vector_2" d="M23.1929 39.7801H20.0378L19.1141 36.2156C19.027 35.8755 18.7316 35.6273 18.3787 35.5988C18.0286 35.5722 17.7005 35.7712 17.5654 36.0927L15.2976 41.5259L14.7892 39.3131C14.706 38.9405 14.3763 38.6721 13.991 38.6638H10.2028C9.75079 38.6638 9.38428 39.0273 9.38428 39.4757C9.38428 39.924 9.75079 40.2875 10.2028 40.2875H13.3399L14.2764 44.3467C14.3551 44.6928 14.6497 44.9496 15.0062 44.9829C15.029 44.9849 15.0518 44.9905 15.0746 44.9905C15.4051 44.9912 15.7037 44.7938 15.8303 44.491L18.1421 38.9508L18.6113 40.7735C18.7029 41.1362 19.027 41.3943 19.4039 41.4038H23.1929C23.6449 41.4038 24.0114 41.0403 24.0114 40.5919C24.0114 40.1436 23.6449 39.7801 23.1929 39.7801Z" fill="#784F33"/>
<path id="Vector_3" d="M36.6611 41.7083H30.4553C30.0032 41.7083 29.6367 42.0718 29.6367 42.5201C29.6367 42.9684 30.0032 43.3319 30.4553 43.3319H36.6611C37.1132 43.3319 37.4797 42.9684 37.4797 42.5201C37.4797 42.0718 37.1132 41.7083 36.6611 41.7083Z" fill="#784F33"/>
<path id="Vector_4" d="M14.9663 21.6822C14.9663 22.0897 15.2713 22.4338 15.6789 22.4865C16.0866 22.5392 16.4703 22.2839 16.5758 21.8899C16.6626 21.5668 16.842 21.1304 16.9787 20.9707C17.2285 20.7384 17.5578 20.6075 17.9008 20.6048C18.2421 20.6024 18.5714 20.7316 18.8184 20.9651C19.0595 21.2148 19.1957 21.5462 19.1985 21.8919C19.1985 22.3402 19.5651 22.7037 20.0171 22.7037C20.4691 22.7037 20.8356 22.3402 20.8356 21.8919C20.8284 21.5486 20.9627 21.2168 21.2077 20.9738C21.4527 20.7308 21.7869 20.5976 22.1334 20.6048C22.4747 20.6024 22.8037 20.7316 23.0511 20.9651C23.2921 21.2148 23.428 21.5462 23.4312 21.8919V28.1924C23.428 28.3854 23.2689 28.5404 23.0739 28.5404C22.8792 28.5404 22.7201 28.3854 22.7169 28.1924C22.7169 27.744 22.3504 27.3805 21.8984 27.3805C21.4464 27.3805 21.0798 27.744 21.0798 28.1924C21.0878 29.2789 21.9783 30.1562 23.0739 30.1562C24.1698 30.1562 25.0603 29.2789 25.0683 28.1924V21.8919C25.0611 21.5486 25.1954 21.2168 25.4404 20.9738C25.6854 20.7308 26.0195 20.5976 26.366 20.6048C26.7074 20.6024 27.0363 20.7316 27.2837 20.9651C27.5247 21.2148 27.6606 21.5462 27.6638 21.8919C27.6638 22.3402 28.0303 22.7037 28.4824 22.7037C28.9344 22.7037 29.3009 22.3402 29.3009 21.8919C29.2933 21.5486 29.428 21.2168 29.673 20.9738C29.9176 20.7308 30.2521 20.5976 30.5987 20.6048C30.9392 20.6024 31.2673 20.7308 31.5143 20.9635C31.6514 21.1165 31.8353 21.5621 31.9236 21.8887C32.0283 22.2832 32.412 22.5392 32.8201 22.4869C33.2282 22.4346 33.5335 22.0901 33.5335 21.6822C33.5335 16.5971 29.3772 12.4745 24.2501 12.4745C19.123 12.4745 14.9667 16.5971 14.9667 21.6822H14.9663ZM31.4404 19.1012C30.4136 18.8015 29.3033 19.0715 28.5327 19.808C28.5207 19.8195 28.5087 19.831 28.4975 19.8429L28.4824 19.8591L28.4672 19.8429C28.4612 19.8369 28.4556 19.831 28.4496 19.8254C27.894 19.2828 27.1454 18.9795 26.366 18.9811C25.5963 18.9847 24.8568 19.2808 24.3001 19.808C24.2881 19.8195 24.2765 19.831 24.2649 19.8429L24.2497 19.8591L24.2345 19.8429C24.2289 19.8369 24.2229 19.831 24.2174 19.8254C23.6618 19.2828 22.9128 18.9795 22.1334 18.9811C21.3636 18.9847 20.6242 19.2808 20.0675 19.808C20.0555 19.8195 20.0439 19.831 20.0323 19.8429L20.0171 19.8591L20.0019 19.8429C19.9963 19.8369 19.9903 19.831 19.9847 19.8254C19.2145 19.0742 18.0934 18.7976 17.0582 19.104C18.1534 16.1004 21.0283 14.099 24.2485 14.0982C27.4688 14.0978 30.3445 16.098 31.4404 19.1012Z" fill="#784F33"/>
<path id="Vector_5" d="M10.6296 21.3223C10.6296 28.7712 16.7396 34.8306 24.2496 34.8306C31.7596 34.8306 37.8696 28.7708 37.8696 21.3223C37.8696 13.8738 31.7596 7.81396 24.2496 7.81396C16.7396 7.81396 10.6296 13.8738 10.6296 21.3223ZM36.2325 21.3223C36.2325 27.886 30.8675 33.2069 24.2496 33.2069C17.6317 33.2069 12.2667 27.886 12.2667 21.3223C12.2667 14.7586 17.6317 9.43764 24.2496 9.43764C30.8643 9.44518 36.2249 14.7618 36.2325 21.3223Z" fill="#784F33"/>
</g>
</svg>
