<svg width="49" height="48" viewBox="0 0 49 48" fill="none" xmlns="http://www.w3.org/2000/svg">
<g id="009-car-insurance-3" clip-path="url(#clip0_1_317)">
<path id="Vector" d="M13.578 33.3403C13.578 32.9142 13.2298 32.5687 12.8004 32.5687H6.38482C5.95537 32.5687 5.60718 32.9142 5.60718 33.3403V37.6804C5.60718 38.1065 5.95537 38.452 6.38482 38.452H12.8004C13.2298 38.452 13.578 38.1065 13.578 37.6804V33.3403ZM12.0227 36.9088H7.16247V34.1119H12.0227V36.9088Z" fill="#784F33"/>
<path id="Vector_2" d="M37.394 33.3403C37.394 32.9142 37.0458 32.5687 36.6163 32.5687H30.2007C29.7713 32.5687 29.4231 32.9142 29.4231 33.3403V37.6804C29.4231 38.1065 29.7713 38.452 30.2007 38.452H36.6163C37.0458 38.452 37.394 38.1065 37.394 37.6804V33.3403ZM35.8387 36.9088H30.9784V34.1119H35.8387V36.9088Z" fill="#784F33"/>
<path id="Vector_3" d="M26.4096 34.2083C26.4096 33.7822 26.0614 33.4368 25.6319 33.4368H17.3694C16.94 33.4368 16.5918 33.7822 16.5918 34.2083V36.8124C16.5918 37.2385 16.94 37.5839 17.3694 37.5839H25.6319C26.0614 37.5839 26.4096 37.2385 26.4096 36.8124V34.2083ZM24.8543 36.0408H18.1471V34.9799H24.8543V36.0408Z" fill="#784F33"/>
<path id="Vector_4" d="M46.2986 4.57928L37.0679 0.0787114C36.8526 -0.0263999 36.6001 -0.0263999 36.3848 0.0787114L27.1426 4.56648C26.8749 4.69532 26.7037 4.96394 26.7014 5.25968V13.5834C26.7014 14.8553 27.1388 16.2692 27.8348 17.523H10.8383C9.38816 17.5174 8.08765 18.4065 7.57618 19.7526L4.55635 27.8273L3.30559 28.9828C2.23367 29.8911 1.61816 31.2207 1.62234 32.6195V44.5182C1.62234 46.4215 3.16775 48.0001 5.08567 48.0001H7.33811C9.27311 47.9888 10.8402 46.4381 10.8569 44.5182V42.6955H32.1449V44.5182C32.1449 46.4219 33.6957 48.0001 35.6143 48.0001H37.866C39.7999 47.9888 41.3654 46.4373 41.3795 44.5182V32.3125C41.3707 31.001 40.8247 29.7495 39.8671 28.8457L38.9824 27.9166L37.5262 24.0286L43.2305 20.1618C45.229 18.81 46.7258 15.9818 46.7258 13.5834V5.27174C46.7288 4.97863 46.5633 4.70964 46.2986 4.57928ZM9.03427 20.2752C9.31981 19.536 10.0409 19.053 10.8383 19.0662H28.9352C29.3298 19.452 29.7615 19.8743 30.2202 20.1844L35.8387 23.9608L37.1537 27.457H6.33871L9.03427 20.2752ZM9.30158 44.5182C9.28488 45.5859 8.41382 46.4456 7.33811 46.4569H5.08567C4.02476 46.4569 3.17763 45.5704 3.17763 44.5182V42.1651C3.74757 42.5233 4.4113 42.708 5.08605 42.6955H9.30158V44.5182ZM39.2436 45.8831C38.8783 46.2467 38.3832 46.4528 37.866 46.4569H35.6143C34.5534 46.4569 33.7002 45.5704 33.7002 44.5182V42.6955H37.866C38.5563 42.7083 39.236 42.5245 39.8242 42.1654V44.5182C39.8192 45.0313 39.6104 45.5215 39.2436 45.8828V45.8831ZM39.8242 38.6207V39.2909C39.8242 40.3435 38.9269 41.1524 37.866 41.1524H5.08605C4.58255 41.1618 4.09652 40.97 3.73732 40.6197C3.37811 40.2697 3.17649 39.7905 3.17763 39.2909V32.6195C3.17383 31.666 3.59417 30.7595 4.32587 30.1421C4.33498 30.1341 4.33992 30.1131 4.34865 30.1048L5.52689 29.0002H37.8914L38.7295 29.9028C38.7405 29.9145 38.769 29.9326 38.7807 29.9435C39.4395 30.5591 39.8162 31.4147 39.8242 32.3125V38.6207ZM45.1705 13.5831C45.1705 15.4532 43.9106 17.8324 42.3519 18.8865L36.7242 22.6972L31.0874 18.8861C29.5291 17.8324 28.2567 15.4536 28.2567 13.5834V5.74078L36.7136 1.63089L45.1705 5.75246V13.5831Z" fill="#784F33"/>
<path id="Vector_5" d="M33.7617 11.6071C33.5666 11.41 33.2799 11.3317 33.0107 11.4017C32.7411 11.4714 32.53 11.679 32.4571 11.9458C32.3838 12.2125 32.4601 12.4973 32.6568 12.6932L35.022 15.0693C35.1663 15.217 35.3645 15.3018 35.5722 15.3048H35.5741C35.781 15.3022 35.9789 15.2185 36.1239 15.072L40.7962 10.4328C41.0966 10.131 41.0955 9.64498 40.7932 9.34472C40.4913 9.04408 40.0015 9.04182 39.6966 9.33907L35.5768 13.426L33.7617 11.6071Z" fill="#784F33"/>
</g>
<defs>
<clipPath id="clip0_1_317">
<rect width="48.378" height="48" fill="white"/>
</clipPath>
</defs>
</svg>
