<svg width="24" height="25" viewBox="0 0 24 25" fill="none" xmlns="http://www.w3.org/2000/svg">
<path d="M11.848 14.936C11.688 14.648 11.5333 14.312 11.384 13.928C11.2453 13.544 11.1707 13.1653 11.16 12.792C11.16 12.472 11.24 12.1893 11.4 11.944C11.56 11.6987 11.8053 11.4587 12.136 11.224C12.4667 10.9787 12.8933 10.7013 13.416 10.392C13.6613 10.2427 13.8907 9.992 14.104 9.64C14.328 9.288 14.44 8.904 14.44 8.488C14.44 8.072 14.3387 7.66667 14.136 7.272C13.9333 6.86667 13.6133 6.54133 13.176 6.296C12.7493 6.04 12.1947 5.912 11.512 5.912C11.2133 5.912 10.936 5.93867 10.68 5.992C10.4347 6.04533 10.2427 6.10933 10.104 6.184L9.768 4.92C9.96 4.81333 10.2587 4.71733 10.664 4.632C11.0693 4.536 11.5547 4.488 12.12 4.488C12.952 4.488 13.656 4.59467 14.232 4.808C14.808 5.02133 15.272 5.30933 15.624 5.672C15.976 6.024 16.232 6.424 16.392 6.872C16.552 7.30933 16.632 7.76267 16.632 8.232C16.632 8.744 16.536 9.18667 16.344 9.56C16.1627 9.92267 15.9227 10.2373 15.624 10.504C15.336 10.76 15.032 10.9947 14.712 11.208C14.392 11.4107 14.0933 11.608 13.816 11.8C13.5387 11.992 13.3253 12.2053 13.176 12.44C13.1547 12.4933 13.1333 12.568 13.112 12.664C13.1013 12.7493 13.096 12.8453 13.096 12.952C13.096 13.272 13.1067 13.6027 13.128 13.944C13.1493 14.2747 13.1867 14.6053 13.24 14.936H11.848ZM12.28 19.144C11.9707 19.144 11.688 19.0373 11.432 18.824C11.176 18.6 11.048 18.3067 11.048 17.944C11.048 17.5493 11.192 17.2293 11.48 16.984C11.7787 16.728 12.12 16.6 12.504 16.6C12.92 16.6 13.2347 16.728 13.448 16.984C13.672 17.2293 13.784 17.5067 13.784 17.816C13.784 18.232 13.64 18.5573 13.352 18.792C13.0747 19.0267 12.7173 19.144 12.28 19.144Z" fill="#DBB468"/>
<path d="M15 22.75H9C3.57 22.75 1.25 20.43 1.25 15V9C1.25 3.57 3.57 1.25 9 1.25H15C20.43 1.25 22.75 3.57 22.75 9V15C22.75 20.43 20.43 22.75 15 22.75ZM9 2.75C4.39 2.75 2.75 4.39 2.75 9V15C2.75 19.61 4.39 21.25 9 21.25H15C19.61 21.25 21.25 19.61 21.25 15V9C21.25 4.39 19.61 2.75 15 2.75H9Z" fill="#DBB468"/>
</svg>
