<svg width="25" height="24" viewBox="0 0 25 24" fill="none" xmlns="http://www.w3.org/2000/svg">
<g id="ic-actions-view">
<g id="Layer">
<path id="Vector" d="M22.1665 12.12L19.5665 15C18.6292 16.0312 17.4868 16.8551 16.2124 17.4189C14.9381 17.9827 13.56 18.2739 12.1665 18.2739C10.773 18.2739 9.3949 17.9827 8.12056 17.4189C6.84622 16.8551 5.70378 16.0312 4.7665 15L2.1665 12.12L4.4865 9.34001C5.42501 8.2146 6.59938 7.3092 7.92651 6.68788C9.25365 6.06656 10.7011 5.74451 12.1665 5.74451C13.6319 5.74451 15.0794 6.06656 16.4065 6.68788C17.7336 7.3092 18.908 8.2146 19.8465 9.34001L22.1665 12.12Z" stroke="black" stroke-width="1.5" stroke-linecap="round" stroke-linejoin="round"/>
<path id="Vector_2" d="M12.2565 14.2599C13.6924 14.2599 14.8565 13.1406 14.8565 11.7599C14.8565 10.3792 13.6924 9.25989 12.2565 9.25989C10.8206 9.25989 9.65649 10.3792 9.65649 11.7599C9.65649 13.1406 10.8206 14.2599 12.2565 14.2599Z" stroke="black" stroke-width="1.5" stroke-linecap="round" stroke-linejoin="bevel"/>
</g>
</g>
</svg>
