<svg width="24" height="24" viewBox="-4.5 -5 24 24" fill="none" xmlns="http://www.w3.org/2000/svg">
<g id="ic-actions-view">
<g id="Layer">
<path id="Vector" d="M13.5833 7.06987L12.0667 8.74987C11.5199 9.3514 10.8535 9.83201 10.1101 10.1609C9.36677 10.4898 8.56288 10.6597 7.75001 10.6597C6.93714 10.6597 6.13324 10.4898 5.38987 10.1609C4.64651 9.83201 3.98008 9.3514 3.43334 8.74987L1.91667 7.06987L3.27001 5.44821C3.81746 4.79172 4.50251 4.26357 5.27668 3.90113C6.05084 3.5387 6.8952 3.35083 7.75001 3.35083C8.60481 3.35083 9.44917 3.5387 10.2233 3.90113C10.9975 4.26357 11.6825 4.79172 12.23 5.44821L13.5833 7.06987Z" stroke="#DBB468" stroke-width="0.7" stroke-linecap="round" stroke-linejoin="round"/>
<path id="Vector_2" d="M7.80262 8.31804C8.64025 8.31804 9.31928 7.66512 9.31928 6.8597C9.31928 6.05429 8.64025 5.40137 7.80262 5.40137C6.96498 5.40137 6.28595 6.05429 6.28595 6.8597C6.28595 7.66512 6.96498 8.31804 7.80262 8.31804Z" stroke="#DBB468" stroke-width="0.7" stroke-linecap="round" stroke-linejoin="bevel"/>
</g>
</g>
</svg>
