<svg width="360" height="67" viewBox="0 0 360 67" fill="none" xmlns="http://www.w3.org/2000/svg">
<path d="M69.9771 44.4189C70.8706 44.9756 72.0498 45.459 73.5146 45.8691C74.9795 46.2646 76.4297 46.4624 77.8652 46.4624C80.0332 46.4624 81.6812 46.0889 82.8091 45.3418C83.9517 44.5947 84.5229 43.4229 84.5229 41.8262C84.5229 40.7715 84.2446 39.8706 83.688 39.1235C83.146 38.3765 82.3916 37.71 81.4248 37.124C80.458 36.5381 79.0225 35.7837 77.1182 34.8608C74.6719 33.6743 72.665 32.2534 71.0977 30.5981C69.5303 28.9429 68.7466 27.0093 68.7466 24.7974C68.7466 22.7759 69.2739 21.1279 70.3286 19.8535C71.3833 18.5645 72.7456 17.6343 74.4155 17.063C76.0854 16.4917 77.9019 16.2061 79.8647 16.2061C81.6958 16.2061 83.2705 16.3818 84.5889 16.7334C85.9072 17.0703 86.9253 17.4731 87.6431 17.9419L86.6543 21.8091C85.7021 21.2378 84.728 20.8057 83.7319 20.5127C82.7358 20.2051 81.4248 20.0513 79.7988 20.0513C78.6855 20.0513 77.6455 20.1978 76.6787 20.4907C75.7119 20.7837 74.9282 21.2378 74.3276 21.853C73.7271 22.4683 73.4268 23.23 73.4268 24.1382C73.4268 25.2075 73.6392 26.1011 74.064 26.8188C74.4888 27.522 75.1406 28.1738 76.0195 28.7744C76.9131 29.3604 78.2681 30.1221 80.0845 31.0596C81.9595 32.0264 83.5269 32.9419 84.7866 33.8062C86.061 34.6558 87.1377 35.7031 88.0166 36.9482C88.8955 38.1934 89.335 39.6289 89.335 41.2549C89.335 43.2617 88.8662 44.9463 87.9287 46.3086C87.0059 47.6709 85.7095 48.689 84.0396 49.3628C82.3696 50.022 80.4214 50.3516 78.1948 50.3516C76.8179 50.3516 75.4849 50.249 74.1958 50.0439C72.9214 49.8389 71.8081 49.5898 70.856 49.2969C69.9185 49.0039 69.2373 48.7183 68.8125 48.4399L69.9771 44.4189ZM124.261 24.5776C126.004 24.5776 127.396 24.8926 128.436 25.5225C129.476 26.1523 130.237 27.1777 130.721 28.5986C131.219 30.0049 131.468 31.9092 131.468 34.3115V50H126.634V34.3774C126.634 32.9126 126.517 31.77 126.282 30.9497C126.048 30.1147 125.601 29.5068 124.942 29.126C124.283 28.7305 123.323 28.562 122.063 28.6206C121.17 28.6499 120.159 28.8696 119.031 29.2798C117.903 29.6753 116.871 30.2026 115.933 30.8618C116.065 31.8726 116.131 33.0225 116.131 34.3115V50H111.297V34.3774C111.297 32.9126 111.172 31.77 110.923 30.9497C110.689 30.1147 110.242 29.5068 109.583 29.126C108.924 28.7305 107.972 28.562 106.727 28.6206C105.862 28.6499 104.852 28.8696 103.694 29.2798C102.552 29.6753 101.512 30.2173 100.574 30.9058V50H95.7402V24.9951H100.047L100.069 27.6318C101.197 26.8701 102.537 26.1816 104.09 25.5664C105.657 24.9512 107.188 24.6216 108.682 24.5776C110.337 24.5337 111.678 24.7607 112.703 25.2588C113.743 25.7422 114.534 26.5552 115.076 27.6978C116.189 26.8628 117.596 26.1377 119.295 25.5225C121.009 24.8926 122.664 24.5776 124.261 24.5776ZM148.596 24.5776C150.529 24.5776 152.141 24.7974 153.43 25.2368C154.719 25.6763 155.722 26.4819 156.44 27.6538C157.158 28.811 157.517 30.4443 157.517 32.5537V50.3516H155.539C154.88 50.3516 154.382 50.3076 154.045 50.2197C153.708 50.1318 153.444 49.9268 153.254 49.6045C153.063 49.2822 152.968 48.7695 152.968 48.0664V47.8906C152.236 48.5645 151.225 49.1431 149.936 49.6265C148.662 50.1099 147.329 50.3516 145.937 50.3516C144.458 50.3516 143.132 50.0659 141.96 49.4946C140.803 48.9233 139.895 48.1104 139.235 47.0557C138.591 45.9863 138.269 44.7339 138.269 43.2983C138.269 41.7163 138.693 40.3467 139.543 39.1895C140.407 38.0322 141.608 37.1387 143.146 36.5088C144.509 35.9668 146.047 35.564 147.761 35.3003C149.489 35.022 151.13 34.8828 152.683 34.8828V32.356C152.683 31.1841 152.492 30.3052 152.111 29.7192C151.745 29.1333 151.188 28.7378 150.441 28.5327C149.694 28.3276 148.662 28.2251 147.343 28.2251C146.64 28.2251 145.827 28.3203 144.904 28.5107C143.996 28.7012 143.139 28.9429 142.333 29.2358C141.542 29.5142 140.957 29.7852 140.576 30.0488L139.389 26.8848C139.77 26.6504 140.458 26.3501 141.455 25.9839C142.465 25.6177 143.608 25.2954 144.882 25.0171C146.171 24.7241 147.409 24.5776 148.596 24.5776ZM147.365 46.748C148.054 46.748 148.779 46.6455 149.541 46.4404C150.302 46.2354 150.969 45.9937 151.54 45.7153C152.126 45.4224 152.507 45.1733 152.683 44.9683V37.959C151.613 37.959 150.405 38.0615 149.057 38.2666C147.724 38.4717 146.647 38.772 145.827 39.1675C144.934 39.5923 144.245 40.0903 143.762 40.6616C143.278 41.2329 143.037 41.9727 143.037 42.8809C143.037 45.459 144.479 46.748 147.365 46.748ZM176.93 24.5776C178.102 24.5776 178.915 24.6802 179.369 24.8853V29.4116C179.061 29.2358 178.658 29.0967 178.16 28.9941C177.677 28.877 176.981 28.8184 176.073 28.8184C174.959 28.8184 173.927 29.0234 172.975 29.4336C172.037 29.8291 171.246 30.3125 170.602 30.8838V50H165.768V24.9951H169.833L170.162 27.7637C170.484 27.3242 171.004 26.8555 171.722 26.3574C172.455 25.8594 173.282 25.4419 174.205 25.105C175.143 24.7534 176.051 24.5776 176.93 24.5776ZM186.104 28.5986H182.852V25.9839L183.643 25.7642C184.316 25.5737 184.814 25.4199 185.137 25.3027C185.459 25.1709 185.737 24.9951 185.972 24.7754C186.221 24.541 186.418 24.2261 186.565 23.8306C186.785 23.2739 187.107 22.2705 187.532 20.8203L188.015 19.2383H190.916V24.9512H197.991V28.5986H190.916V41.2769C190.916 42.9468 190.981 44.1333 191.113 44.8364C191.245 45.5249 191.487 45.9717 191.838 46.1768C192.205 46.3818 192.82 46.4844 193.684 46.4844C194.314 46.4844 195.076 46.3818 195.969 46.1768C196.877 45.9717 197.544 45.7593 197.969 45.5396L198.804 48.3081C198.086 48.8354 197.053 49.3115 195.706 49.7363C194.373 50.1465 193.098 50.3516 191.882 50.3516C190.051 50.3516 188.63 49.8975 187.62 48.9893C186.609 48.0664 186.104 46.4038 186.104 44.0015V28.5986ZM220.55 50V17.87H244.67V50H240.665V21.425H224.6V50H220.55ZM265.4 25.43C268.37 25.43 270.755 26.465 272.555 28.535C274.385 30.605 275.3 33.725 275.3 37.895C275.3 42.005 274.385 45.125 272.555 47.255C270.755 49.385 268.355 50.45 265.355 50.45C263.495 50.45 261.95 50.105 260.72 49.415C259.52 48.695 258.575 47.87 257.885 46.94H257.615C257.675 47.45 257.735 48.095 257.795 48.875C257.855 49.655 257.885 50.33 257.885 50.9V60.8H253.925V25.88H257.165L257.705 29.165H257.885C258.605 28.115 259.55 27.23 260.72 26.51C261.89 25.79 263.45 25.43 265.4 25.43ZM264.68 28.76C262.22 28.76 260.48 29.45 259.46 30.83C258.47 32.21 257.945 34.31 257.885 37.13V37.895C257.885 40.865 258.365 43.16 259.325 44.78C260.315 46.37 262.13 47.165 264.77 47.165C266.24 47.165 267.44 46.76 268.37 45.95C269.33 45.14 270.035 44.045 270.485 42.665C270.965 41.255 271.205 39.65 271.205 37.85C271.205 35.09 270.665 32.885 269.585 31.235C268.535 29.585 266.9 28.76 264.68 28.76ZM291.745 25.475C294.685 25.475 296.86 26.12 298.27 27.41C299.68 28.7 300.385 30.755 300.385 33.575V50H297.505L296.74 46.58H296.56C295.51 47.9 294.4 48.875 293.23 49.505C292.09 50.135 290.5 50.45 288.46 50.45C286.27 50.45 284.455 49.88 283.015 48.74C281.575 47.57 280.855 45.755 280.855 43.295C280.855 40.895 281.8 39.05 283.69 37.76C285.58 36.44 288.49 35.72 292.42 35.6L296.515 35.465V34.025C296.515 32.015 296.08 30.62 295.21 29.84C294.34 29.06 293.11 28.67 291.52 28.67C290.26 28.67 289.06 28.865 287.92 29.255C286.78 29.615 285.715 30.035 284.725 30.515L283.51 27.545C284.56 26.975 285.805 26.495 287.245 26.105C288.685 25.685 290.185 25.475 291.745 25.475ZM292.915 38.345C289.915 38.465 287.83 38.945 286.66 39.785C285.52 40.625 284.95 41.81 284.95 43.34C284.95 44.69 285.355 45.68 286.165 46.31C287.005 46.94 288.07 47.255 289.36 47.255C291.4 47.255 293.095 46.7 294.445 45.59C295.795 44.45 296.47 42.71 296.47 40.37V38.21L292.915 38.345ZM328.23 31.955C328.23 33.455 327.78 34.625 326.88 35.465C325.98 36.305 324.825 36.875 323.415 37.175V37.355C324.915 37.565 326.22 38.105 327.33 38.975C328.44 39.815 328.995 41.135 328.995 42.935C328.995 44.975 328.23 46.67 326.7 48.02C325.2 49.34 322.71 50 319.23 50H308.835V25.88H319.185C320.895 25.88 322.425 26.075 323.775 26.465C325.155 26.825 326.235 27.455 327.015 28.355C327.825 29.225 328.23 30.425 328.23 31.955ZM324.225 32.45C324.225 31.31 323.805 30.485 322.965 29.975C322.155 29.435 320.82 29.165 318.96 29.165H312.795V35.78H318.24C322.23 35.78 324.225 34.67 324.225 32.45ZM324.9 42.935C324.9 41.555 324.375 40.565 323.325 39.965C322.275 39.365 320.73 39.065 318.69 39.065H312.795V46.805H318.78C320.76 46.805 322.275 46.52 323.325 45.95C324.375 45.35 324.9 44.345 324.9 42.935ZM356.732 37.895C356.732 41.885 355.713 44.975 353.673 47.165C351.663 49.355 348.933 50.45 345.483 50.45C343.353 50.45 341.448 49.97 339.768 49.01C338.118 48.02 336.813 46.595 335.853 44.735C334.893 42.845 334.413 40.565 334.413 37.895C334.413 33.905 335.418 30.83 337.428 28.67C339.438 26.51 342.168 25.43 345.618 25.43C347.808 25.43 349.728 25.925 351.378 26.915C353.058 27.875 354.363 29.285 355.293 31.145C356.253 32.975 356.732 35.225 356.732 37.895ZM338.508 37.895C338.508 40.745 339.063 43.01 340.173 44.69C341.313 46.34 343.113 47.165 345.573 47.165C348.003 47.165 349.788 46.34 350.928 44.69C352.068 43.01 352.638 40.745 352.638 37.895C352.638 35.045 352.068 32.81 350.928 31.19C349.788 29.57 347.988 28.76 345.528 28.76C343.068 28.76 341.283 29.57 340.173 31.19C339.063 32.81 338.508 35.045 338.508 37.895Z" fill="black"/>
<g clip-path="url(#clip0)">
<path d="M24.224 0L0 13.8336L8.0948 18.6059L24.224 9.30297L40.4136 18.4851V37.1515L48.5084 32.4396V13.8336L24.224 0Z" fill="url(#paint0_linear)"/>
<path d="M24.2258 18.5454L16.1914 23.2573L40.4154 37.1514V27.788L24.2258 18.5454Z" fill="url(#paint1_linear)"/>
<path d="M24.2878 19.9956L18.6094 23.2577L40.2358 35.6415V29.0569L24.2878 19.9956Z" fill="url(#paint2_linear)"/>
<path d="M24.2256 1.38965L2.41797 13.8339L8.09641 17.2168L24.2256 7.91381L41.6234 17.7605V29.9027L40.234 29.0569V35.6415L40.4152 35.7019L47.3018 31.7753V14.4984L24.2256 1.38965Z" fill="url(#paint3_linear)"/>
<path d="M24.2229 46.4542L32.3177 41.7423L8.09375 27.9087V37.2117L24.2229 46.4542Z" fill="url(#paint4_linear)"/>
<path d="M24.224 64.9998L48.5084 51.2265L40.4136 46.3938L24.224 55.6968L8.0948 46.5146V27.9087L0 32.5602V51.2265L24.224 64.9998Z" fill="url(#paint5_linear)"/>
<path d="M24.2227 45.0651L29.9011 41.7426L8.09347 29.2983L7.97266 29.3587V35.7621L24.2227 45.0651Z" fill="url(#paint6_linear)"/>
<path d="M40.4124 47.844L24.2832 57.0866L6.88547 47.2399V35.0977L7.97283 35.7622V29.3589L1.20703 33.2251V50.502L24.2228 63.6107L46.0909 51.1665L40.4124 47.844Z" fill="url(#paint7_linear)"/>
<path d="M39.9293 36.8494L40.4126 37.1515V27.7881L38.9023 26.9424L39.9293 36.8494Z" fill="#DBB468"/>
<path d="M8.57702 28.1503L8.09375 27.9087V37.2117L9.60397 38.0574L8.57702 28.1503Z" fill="#DBB468"/>
</g>
<defs>
<linearGradient id="paint0_linear" x1="24.2509" y1="1.08996" x2="24.2509" y2="36.1393" gradientUnits="userSpaceOnUse">
<stop stop-color="#DBB468"/>
<stop offset="1" stop-color="#D9AC54"/>
</linearGradient>
<linearGradient id="paint1_linear" x1="13.8053" y1="17.1778" x2="41.4016" y2="33.091" gradientUnits="userSpaceOnUse">
<stop stop-color="#DBB468"/>
<stop offset="1" stop-color="#CCA353"/>
</linearGradient>
<linearGradient id="paint2_linear" x1="23.2891" y1="16.2008" x2="31.9507" y2="30.3011" gradientUnits="userSpaceOnUse">
<stop stop-color="#DBB468"/>
<stop offset="1" stop-color="#CCA353"/>
</linearGradient>
<linearGradient id="paint3_linear" x1="31.0129" y1="3.85596" x2="22.9556" y2="28.6321" gradientUnits="userSpaceOnUse">
<stop stop-color="#D9AC54"/>
<stop offset="1" stop-color="#CCA353"/>
</linearGradient>
<linearGradient id="paint4_linear" x1="33.3647" y1="43.6143" x2="4.35848" y2="32.737" gradientUnits="userSpaceOnUse">
<stop stop-color="#DBB468"/>
<stop offset="1" stop-color="#D9AC54"/>
</linearGradient>
<linearGradient id="paint5_linear" x1="23.8243" y1="28.5812" x2="24.4285" y2="60.609" gradientUnits="userSpaceOnUse">
<stop stop-color="#DBB468"/>
<stop offset="1" stop-color="#D9AC54"/>
</linearGradient>
<linearGradient id="paint6_linear" x1="28.7989" y1="39.5642" x2="13.6914" y2="36.6937" gradientUnits="userSpaceOnUse">
<stop stop-color="#DBB468"/>
<stop offset="1" stop-color="#D9AC54"/>
</linearGradient>
<linearGradient id="paint7_linear" x1="6.33013" y1="59.7854" x2="20.0276" y2="45.8866" gradientUnits="userSpaceOnUse">
<stop stop-color="#DBB468"/>
<stop offset="1" stop-color="#D9AC54"/>
</linearGradient>
<clipPath id="clip0">
<rect width="48.5084" height="65" fill="white"/>
</clipPath>
</defs>
</svg>
